<?xml version="1.0" encoding="utf-8"?>
<!-- Generator: Adobe Illustrator 24.0.3, SVG Export Plug-In . SVG Version: 6.00 Build 0)  -->
<svg version="1.1" id="Layer_1" xmlns="http://www.w3.org/2000/svg" xmlns:xlink="http://www.w3.org/1999/xlink" x="0px" y="0px"
	 viewBox="0 0 1920 1080" style="enable-background:new 0 0 1920 1080;" xml:space="preserve">
<style type="text/css">
	.st0{fill:#161616;}
</style>
<g>
	<path class="st0" d="M533.2,789.5L361.3,290.5H239.6L67.7,789.5h123l29-89.4H380l28.3,89.4H533.2z M247.4,603.6l52.1-174.7h1.3
		l50.9,174.7H247.4z M927.9,559.6c-13.9-21.4-33.4-35.9-58.3-43.3c40.3-21.9,60.5-55.4,60.5-100.6c0-83.4-55.4-125.1-166.1-125.1
		h-215v498.9h220.8c119.3,0,179-51.7,179-155.1C948.8,605.9,941.9,581,927.9,559.6z M668.8,391.9h92.7c32.6,0,48.9,16,48.9,47.9
		c0,14.8-4.6,26.3-13.8,34.7c-9.2,8.3-20.9,12.5-35.1,12.5h-92.7V391.9z M764.7,685.4h-95.9V570.7h95.9c42.9,0,64.4,19.6,64.4,58.7
		C829.1,666.7,807.6,685.4,764.7,685.4z M1413.4,789.5l-171.9-498.9h-121.7L948,789.5h123l29-89.4h160.3l28.3,89.4H1413.4z
		 M1127.6,603.6l52.1-174.7h1.3l50.9,174.7H1127.6z M1795,722.4c38.2-43.8,57.3-105.3,57.3-184.5c0-77.3-19.7-137.9-59.2-181.7
		c-39.5-43.8-94.8-65.7-166.1-65.7H1549h-119.7v498.9H1549h77.9C1699.5,789.5,1755.5,767.1,1795,722.4z M1720.8,612.1
		c0.7-1.7-1-2.6-3.5-3.9l-8.6-3.8l-27.2-12c-0.9-0.4-1.5-0.7-2.1-1c-0.8-0.4-1.7-0.8-3-1.3c-1.7-0.7-3.5-1.5-5.1-2.2l-2.8-1.3
		c-2.4-1.1-4.7-2.2-7.3-3.2l-17.9-7.8c0.9-0.5,2-0.9,3.2-1.4c6.3-2.5,19.1-9,31.5-15.3c7.5-3.8,15.2-7.8,21-10.5
		c3.3-1.6,6-2.8,7.6-3.4c1-0.2,4.7,0.6,16.9,5.6l20.8,8c2.6,1.1,5.1,6.4,7.2,11.1c0.7,1.5,1.4,3,2.1,4.3l5.7,12.1
		c9.7,19.5,16.3,33.6,16.8,35.9c3,15.8-8.7,20.6-19.1,24.9c-1.5,0.6-2.9,1.2-4.2,1.8l-31.5,13.2c-2.4,0.9-3.8,1.5-6.1,2.5l-2.6,1.1
		c-7.9,3.4-7.9,3.4-16.1,0c-1.8-0.7-3.9-1.6-6.4-2.6c-2.3-0.9-4.3-1.6-6.4-2.3c-0.2-0.1-0.4-0.1-0.5-0.2c-1.9-0.7-3.9-1.4-6.1-2.2
		l-77.4-29.3c-2.2-0.8-4.1-1.5-6.6-2.5c-2.8-1.1-4.5-1.7-5.7-2c-1.5-0.5-1.5-0.5-2.1-1.8c-0.4-1-1.1-2.6-1.9-4.5
		c-1.8-4.3-5.3-12.6-6.4-15.9c1.9-0.9,4.4-2.7,7.5-5.4c5.8-5,8.9-8,13.7-15.1c1.8-2.7,3.3-5.5,4.7-8c6.4,1.5,33.6,11.2,57.9,19.9
		c26.2,9.3,40.7,14.4,48.9,17.1C1720,614,1720.3,613.4,1720.8,612.1z M1698.4,535.9l-46.6,21.1c-2.5,1.1-3.6,1.6-5.9,2.7l-11.5,5.1
		c-0.8,0.4-1.7,0.8-2.5,1.1c-0.8,0.3-1.5,0.6-2.3,1c-1.2-0.6-2.5-1.1-3.8-1.7l-1.5-0.7c-1.3-0.5-2.4-1-3.6-1.4
		c-0.7-0.3-1.4-0.5-2.2-0.8c-0.9-0.4-1.8-0.8-2.6-1.1c-1.1-0.5-2.2-0.9-3.4-1.4l-0.9-0.4c-1-0.4-2.2-0.8-3.2-1.3
		c1.2-4.7,2-14.9,2-15.3l-1.9-15.5c-0.3-1.4-0.7-2.8-1.1-4.2c-0.4-1.3-0.7-2.5-1-3.7c2.7-1.4,5.4-2.7,8.1-4.1
		c1.6-0.8,3.3-1.6,4.9-2.4l70.9-34.5l0,0c1.8-0.9,3.5-1.8,5.1-2.6c22.2-11.1,22.2-11.3,21.3-13.1c-0.8-1.7-0.9-1.9-22.3,6.8
		c-2.8,1.1-5.8,2.4-9.4,3.8l-10.1,3.9c-2,0.7-4,1.5-6,2.3c-1.5,0.6-3.1,1.2-4.6,1.8l-27.6,10.4c0.6-1.8,1.3-3.8,1.8-5.7
		c0.4-1.3,0.8-2.5,1.1-3.6l19.3-56.1c0.5-1.4,0.6-1.4,2-2c0.4-0.2,0.9-0.4,1.5-0.7l8.2-3.7l26.3-11.7c2.9,0.1,20,6.2,28.4,9.2
		c3.5,1.2,6.3,2.2,7.9,2.8l3.7,1.2c9.2,3,23.2,7.5,28.8,12.1c2.8,2.3,5,7,5.9,12.7c0.7,4.3-5.1,17.9-8.3,25.1
		c-0.9,2.1-1.7,3.9-2.2,5.2l-7.1,17.4c-0.3,0.8-0.7,1.9-1.2,3.1c-2,5.4-6.1,16.5-9.3,18.3L1698.4,535.9z M1549,354l1.9-5.3
		c4.3-12.9,4.3-12.9,10.3-15.8l56.1-27c1-0.3,2.1-0.5,3.3-0.7l3.6,0c5.3,0.5,10.6,3,13,6.3c3.1,4.2,8.5,17.5,12.9,28.3
		c1.9,4.7,3.6,8.9,4.9,11.6c0.8,1.7,1.4,3.4,2.1,5.1c0.7,1.8,1.4,3.6,2.2,5.3l2.1,4.7c4.2,9.2,4.2,9.2,2.2,14.9l-10.2,27.1
		c-0.1,0.3-0.3,0.7-0.4,1.1c-3.1,8.1-6.4,16.9-9.6,25.5c-4,10.8-8.1,21.9-12,31.7l-8.1,21.3c-0.7,1.7-1.1,3-1.4,4
		c-1,2.9-1.1,3.2-3.2,4.2l-19.5,8c-0.4-0.4-0.7-0.9-1.1-1.5c-0.3-0.5-0.7-1.1-1.2-1.7l-10.2-11.4c-0.9-0.9-1.1-1-1.8-1.6l-0.4-0.3
		c-0.8-0.6-1.4-1.1-1.9-1.6c-1.1-0.9-2.2-1.9-4.6-3.3l-7.7-4.3c0.5-1.3,1-2.8,1.4-4.3c0.2-0.8,0.5-1.5,0.7-2.2l23.3-67.4
		c0.3-0.9,0.5-1.6,0.8-2.5c0.6-1.7,1.2-3.5,1.7-5.2c0.8-2.5,1.6-4.9,2.5-7.6l5.2-15c0.3-0.9,0.8-2.2,1.3-3.7
		c1.9-5.3,3.4-9.5,3.6-11.5l-3.2-0.8l-19.5,43.7l-10.2,22.8c-0.4,0.9-1.1,2.5-1.9,4.3c-1.6,3.4-2.9,6.3-3.7,8.5
		c-2.1-4.9-6.7-14-11.6-23.8c-1.7-3.4-3.1-6.1-3.7-7.4l-2.1-4.4l-6-12.5V354z M1549,419.2l14.1,31.2c0.5,1.4,0,2.6-0.8,4.5l-0.5,1.2
		c-0.3,0.7-0.6,1.5-0.9,2.3c-0.5,1.3-1,2.6-1.5,3.8c-0.9,2-1.7,3.9-2.6,6.1c-0.2,0.5-0.4,1-0.7,1.6c-0.4,1-0.9,2.2-1.3,3.2
		c-1.8-0.4-3.9-0.9-5.9-1.2V419.2z M1549,495.5c3.5,0.8,6.9,1.9,10.2,3.6c18.6,9.4,27.7,24.2,27.7,45.3c0,21.1-16.1,39.9-37.8,44.8
		V495.5z M1549,592.6c23.6-5,41.2-25.4,41.2-48.3c0-22.1-9.9-38.4-29.5-48.3c-3.7-1.9-7.7-3.1-11.7-3.9v-16.8c2.3,0.4,4.9,1,6.7,1.4
		l1.7,0.4l0.4-1.6c0.3-1.3,1-2.9,1.6-4.3c0.3-0.6,0.5-1.2,0.7-1.7c0.9-2.2,1.6-4,2.5-6c0.6-1.2,1.1-2.6,1.6-4
		c0.3-0.8,0.6-1.5,0.9-2.2l0.5-1.1c0.9-2,1.9-4.2,0.9-7.1L1549,411v-8.7h2.3l2.8,5.9c0.6,1.2,2,4,3.7,7.4
		c4.2,8.2,11.9,23.5,12.5,26.1l0.3,1.3h4.1l0.1-1.5c0.1-1.3,2.9-7.4,4.4-10.6c0.8-1.8,1.6-3.5,2-4.4l10.8-24.2h1.1
		c-0.2,0.5-0.3,0.9-0.4,1.4l-23.3,67.4c-0.2,0.7-0.5,1.5-0.7,2.3c-0.6,1.9-1.2,3.9-1.9,5.3l-0.7,1.4l10.4,5.9c2.1,1.2,3,2,4,2.9
		c0.6,0.5,1.2,1.1,2.1,1.7l0.4,0.3c0.6,0.4,0.7,0.5,1.4,1.2l10,11.3c0.4,0.5,0.7,1,1,1.4c0.7,1.1,1.4,2.1,2.6,3l0.8,0.6l21.4-8.7
		c3.5-1.7,4-3.1,5-6.2c0.3-1,0.8-2.3,1.4-3.9l8.1-21.3c3.9-9.8,8-21,12-31.8c3.1-8.6,6.4-17.4,9.5-25.4c4.3,1.9,8.2,4.2,11.6,6.8
		l-6.6,3c-0.5,0.3-1,0.4-1.3,0.6c-1.8,0.7-2.9,1.3-3.8,4l-19.3,56.1c-0.4,1.1-0.8,2.4-1.2,3.7c-1,3.2-2.1,6.7-3.1,8.9l2.1,2.3
		l31.2-11.7c1.5-0.6,3.1-1.2,4.7-1.8c1.9-0.8,3.9-1.6,5.9-2.3l10.2-4c0.6-0.3,1.2-0.5,1.8-0.7l-70.2,34.2c-1.7,0.8-3.3,1.6-4.9,2.4
		c-3.2,1.6-6.3,3.1-9.4,4.7l-1.1,0.6l0.3,1.3c0.4,1.6,0.9,3.4,1.3,5.1c0.4,1.4,0.8,2.7,1.1,3.9l1.8,14.9c-0.4,5.3-1.4,13.7-2.3,15.4
		l-0.7,1.5l1.4,0.8c1.5,0.8,3.3,1.5,4.9,2.1l0.9,0.3c1.2,0.5,2.2,0.9,3.3,1.4c0.9,0.4,1.7,0.8,2.7,1.2c0.8,0.3,1.5,0.6,2.2,0.9
		c1.1,0.4,2.2,0.9,3.4,1.4l1.5,0.7c1.5,0.6,3,1.3,4.3,1.9l0.8,0.4l0.8-0.4c0.9-0.5,1.8-0.9,2.8-1.2c0.9-0.4,1.8-0.8,2.7-1.2
		l11.5-5.1c2.3-1.1,3.4-1.6,5.9-2.7l45.3-20.5c0,1.8,0.1,3.5,0.2,5.2c-5.8,2.8-13.9,6.8-22.3,11.1c-12.3,6.3-25,12.7-31.5,15.3
		c-2.3,0.9-4.7,1.9-6.2,3.9l-1.3,1.7l22.4,9.8c2.6,1.1,4.9,2.1,7.2,3.2l2.9,1.3c1.6,0.7,3.4,1.5,5.2,2.2c1.2,0.5,2,0.9,2.8,1.2
		c0.7,0.3,1.3,0.6,2.2,1l14,6.1c-9.8-3.4-21.3-7.5-32.2-11.4c-34.8-12.4-56.2-19.9-59.8-20.2l-1.1-0.1l-0.5,1
		c-1.5,2.9-3.1,5.8-5.1,8.8c-4.6,6.9-7.4,9.5-13.1,14.5c-4.8,4.1-6.9,5.1-7.8,5.3l-1.4,0.4l0.1,1.4c0.1,1.7,2.4,7.4,6.9,18.1
		c0.8,1.8,1.4,3.4,1.8,4.4c1.1,2.6,1.6,3,4.2,3.8c1.1,0.3,2.8,0.9,5.5,1.9c2.4,1,4.3,1.7,6.6,2.5l77.3,29.2c1.2,0.5,2.2,0.8,3.3,1.2
		c-5,2.6-10.2,5-16,6.9c-0.7-1.6-1.5-3.2-2.2-5l-0.4-0.9c-1.4-3.7-2-4-6.6-5.4c-1.1-0.3-2.4-0.7-4-1.3l-25.1-8.6
		c-1.6-0.5-5-1.7-9.1-3.2c-17.7-6.2-27.1-9.4-28.9-9.6l-2.7-0.2l16.1,42.2h-1l-34.9-71l-0.7-1.5l-1.5,0.7c-2.7,1.3-8.3,2.6-13.1,3.4
		V592.6z M1549,677.7v-65c4.4-0.7,9.5-1.8,13-3.2l33.5,68.1l21.5,43.8l3.1-1.3l-16.2-42.4l-14.5-37.8c5.7,1.8,17.9,6,25.2,8.6
		c4.1,1.4,7.5,2.6,9.1,3.2l25.1,8.6c1.7,0.6,3,1,4.1,1.3c3.5,1.1,3.5,1.1,4.4,3.4l0.4,0.9c0.7,1.7,1.3,3.2,2,4.7c0.5,1,0.9,2,1.4,3
		c0.6,1.3,1.2,2.5,1.8,3.8l0.9,2c0.5,1.3,1.1,2.4,1.8,3.9l5.1,11.5c3.1,6.2,3,6.3,1.1,11.2c-0.6,1.6-1.4,3.6-2.3,6.3l-2.1,6.4
		c-0.5,1.4-0.8,2.3-1.2,3.3c-0.3,0.8-0.6,1.5-0.9,2.5l-8.4,24.7c-0.3,0.9-0.6,1.7-0.9,2.5c-0.4,1.1-0.9,2.3-1.4,3.8l-0.8,2.3
		c-1.7,5.4-2.8,8.6-7.4,12.8c-7.2,6.6-15.8,4.5-23.9,1.2l-35.2-14.4c-1.9-0.8-3.8-1.5-5.7-2.3c-2.2-0.9-4.4-1.8-6.6-2.6l-2.5-0.9
		c-4.3-1.6-5.1-1.9-6.6-4.8l-10.4-22.6c-1.1-2.5-1.6-3.6-2.7-5.9l-3.9-8.6V677.7z"/>
</g>
</svg>
