<?xml version="1.0" encoding="UTF-8"?>
<svg width="31px" height="30px" viewBox="0 0 31 30" version="1.1" xmlns="http://www.w3.org/2000/svg" xmlns:xlink="http://www.w3.org/1999/xlink">
    <title>Group 9</title>
    <g id="sehifeler" stroke="none" stroke-width="1" fill="none" fill-rule="evenodd">
        <g id="əlaqə" transform="translate(-1070.000000, -575.000000)" fill="#00AB34" fill-rule="nonzero">
            <g id="Group-3" transform="translate(935.000000, 554.000000)">
                <g id="126509" transform="translate(135.000000, 21.000000)">
                    <g id="Group-9" transform="translate(0.021805, 0.000012)">
                        <path d="M23.6779421,18.5763174 C23.0640181,17.9370769 22.3235117,17.5953047 21.5387016,17.5953047 C20.7602206,17.5953047 20.0133851,17.9307478 19.3741446,18.5699883 L17.3741446,20.5636592 C17.2095877,20.4750516 17.0450307,20.3927731 16.8868029,20.3104946 C16.6589548,20.1965706 16.4437649,20.0889756 16.2602206,19.9750516 C14.3868029,18.7851782 12.6842712,17.2345452 11.0513598,15.2282161 C10.2602206,14.2282161 9.72857501,13.386444 9.34249906,12.5320136 C9.86148641,12.0573301 10.3424991,11.5636592 10.8108535,11.0889756 C10.9880687,10.9117604 11.1652839,10.7282161 11.3424991,10.5510009 C12.671613,9.22188701 12.671613,7.50036803 11.3424991,6.1712541 L9.61465096,4.443406 C9.41844843,4.24720347 9.21591679,4.04467182 9.02604337,3.84214018 C8.64629653,3.44973511 8.24756235,3.04467182 7.83616995,2.66492499 C7.2222459,2.05733005 6.48806868,1.73454524 5.71591679,1.73454524 C4.94376489,1.73454524 4.19692944,2.05733005 3.56401805,2.66492499 C3.55768894,2.6712541 3.55768894,2.6712541 3.55135982,2.67758322 L1.39946109,4.84846929 C0.589334507,5.65859587 0.12730919,6.64593765 0.0260433676,7.79150727 C-0.125855367,9.63960853 0.418448431,11.3611275 0.83616995,12.4877098 C1.86148641,15.2535326 3.39313198,17.8168237 5.6779421,20.5636592 C8.450094,23.8737857 11.785537,26.4877098 15.5956636,28.329482 C17.0513598,29.0193554 18.9943978,29.8358111 21.1652839,29.9750516 C21.2981953,29.9813807 21.4374358,29.9877098 21.5640181,29.9877098 C23.0260434,29.9877098 24.2538915,29.4623933 25.2159168,28.4180895 C25.2222459,28.4054313 25.2349041,28.3991022 25.2412332,28.386444 C25.5703472,27.9877098 25.950094,27.6269503 26.3488282,27.2408744 C26.6209801,26.9813807 26.8994611,26.7092288 27.171613,26.4244187 C27.7981953,25.7725199 28.1273092,25.0130263 28.1273092,24.2345452 C28.1273092,23.4497351 27.7918662,22.6965706 27.1526256,22.0636592 L23.6779421,18.5763174 Z M25.9437649,25.2408744 C25.9374358,25.2408744 25.9374358,25.2472035 25.9437649,25.2408744 C25.6969294,25.5066971 25.4437649,25.7472035 25.171613,26.0130263 C24.7602206,26.4054313 24.3424991,26.8168237 23.950094,27.278849 C23.3108535,27.9623933 22.5576889,28.2851782 21.5703472,28.2851782 C21.4754105,28.2851782 21.3741446,28.2851782 21.2792079,28.278849 C19.3994611,28.1585959 17.6526256,27.4244187 16.3424991,26.7978364 C12.7602206,25.0636592 9.61465096,22.6016338 7.00072691,19.4813807 C4.84249906,16.8801149 3.39946109,14.4750516 2.44376489,11.8927731 C1.85515729,10.3168237 1.63996742,9.08897562 1.73490413,7.93074777 C1.79819527,7.19024144 2.08300539,6.57631739 2.60832185,6.05100094 L4.7665497,3.89277309 C5.07667628,3.60163385 5.4057902,3.443406 5.72857501,3.443406 C6.12730919,3.443406 6.450094,3.68391233 6.65262565,3.88644398 C6.65895476,3.89277309 6.66528387,3.8991022 6.67161299,3.90543132 C7.05768894,4.26619081 7.42477754,4.63960853 7.81085349,5.03834271 C8.00705603,5.24087436 8.20958767,5.443406 8.41211932,5.65226676 L10.1399674,7.38011486 C10.8108535,8.05100094 10.8108535,8.6712541 10.1399674,9.34214018 C9.95642311,9.52568448 9.77920792,9.70922879 9.59566362,9.88644398 C9.06401805,10.4307478 8.55768894,10.9370769 8.00705603,11.4307478 C7.9943978,11.443406 7.98173957,11.4497351 7.97541046,11.4623933 C7.43110666,12.0066971 7.53237248,12.5383427 7.64629653,12.8991022 C7.65262565,12.9180895 7.65895476,12.9370769 7.66528387,12.9560642 C8.11465096,14.0446718 8.74756235,15.0699883 9.70958767,16.2915073 L9.71591679,16.2978364 C11.4627522,18.4497351 13.3045244,20.1269503 15.3361699,21.4117604 C15.5956636,21.5763174 15.8614864,21.7092288 16.114651,21.8358111 C16.3424991,21.9497351 16.5576889,22.0573301 16.7412332,22.1712541 C16.7665497,22.1839123 16.7918662,22.2028997 16.8171826,22.2155579 C17.0323725,22.3231528 17.2349041,22.3737857 17.4437649,22.3737857 C17.9690813,22.3737857 18.2981953,22.0446718 18.4057902,21.9370769 L20.5703472,19.7725199 C20.785537,19.5573301 21.1273092,19.2978364 21.5260434,19.2978364 C21.9184484,19.2978364 22.2412332,19.5446718 22.4374358,19.7598617 C22.4437649,19.7661908 22.4437649,19.7661908 22.450094,19.7725199 L25.9374358,23.2598617 C26.5893345,23.9054313 26.5893345,24.5699883 25.9437649,25.2408744 Z" id="Shape"></path>
                        <path d="M16.1842712,7.13327942 C17.8424991,7.41176043 19.3488282,8.19657056 20.5513598,9.3991022 C21.7538915,10.6016338 22.5323725,12.107963 22.8171826,13.7661908 C22.8868029,14.1839123 23.2475624,14.4750516 23.6589548,14.4750516 C23.7095877,14.4750516 23.7538915,14.4687225 23.8045244,14.4623933 C24.2728788,14.386444 24.5830054,13.943406 24.507056,13.4750516 C24.1652839,11.4687225 23.2159168,9.63960853 21.7665497,8.19024144 C20.3171826,6.74087436 18.4880687,5.79150727 16.4817396,5.44973511 C16.0133851,5.37378575 15.5766763,5.68391233 15.4943978,6.14593765 C15.4121193,6.60796296 15.7159168,7.05733005 16.1842712,7.13327942 Z" id="Path"></path>
                        <path d="M29.9311067,13.2282161 C29.3678155,9.92441866 27.8108535,6.91808954 25.4184484,4.52568448 C23.0260434,2.13327942 20.0197143,0.576317393 16.7159168,0.0130262538 C16.2538915,-0.0692522272 15.8171826,0.247203469 15.7349041,0.709228785 C15.6589548,1.17758322 15.9690813,1.61429208 16.4374358,1.69657056 C19.3868029,2.19657056 22.0766763,3.59530473 24.2159168,5.72821613 C26.3551573,7.86745663 27.7475624,10.5573301 28.2475624,13.5066971 C28.3171826,13.9244187 28.6779421,14.2155579 29.0893345,14.2155579 C29.1399674,14.2155579 29.1842712,14.2092288 29.2349041,14.2028997 C29.6969294,14.1332794 30.0133851,13.6902414 29.9311067,13.2282161 Z" id="Path"></path>
                    </g>
                </g>
            </g>
        </g>
    </g>
</svg>