<?xml version="1.0" encoding="UTF-8"?>
<svg width="23px" height="22px" viewBox="0 0 23 22" version="1.1" xmlns="http://www.w3.org/2000/svg" xmlns:xlink="http://www.w3.org/1999/xlink">
    <title>Shape</title>
    <g id="sehifeler" stroke="none" stroke-width="1" fill="none" fill-rule="evenodd">
        <g id="shexsi-melumatlarim" transform="translate(-198.000000, -942.000000)" fill="#5B5B5B" fill-rule="nonzero">
            <g id="Group-2" transform="translate(148.000000, 167.000000)">
                <g id="cedvel-02-copy" transform="translate(0.000000, 672.000000)">
                    <path d="M55.1478983,124.941873 C54.8959082,124.941873 54.6456729,124.863613 54.432113,124.709887 C54.0342986,124.422875 53.8484646,123.929556 53.9567361,123.453531 L55.4363884,116.965091 L50.4183457,112.584263 C50.0494855,112.26371 49.9085746,111.756066 50.0600144,111.291571 C50.2114541,110.827948 50.6234825,110.499709 51.1113185,110.454815 L57.7508018,109.854761 L60.3758158,103.739455 C60.5693709,103.290157 61.0101781,103 61.4999444,103 C61.9897107,103 62.4305179,103.290157 62.624073,103.738407 L65.249087,109.854761 L71.8875174,110.454815 C72.3764063,110.498661 72.7884347,110.827948 72.9398745,111.291571 C73.0913142,111.755193 72.9512807,112.26371 72.5824205,112.584263 L67.5643778,116.964217 L69.0440301,123.452483 C69.1524771,123.929556 68.9664677,124.422875 68.5688286,124.709014 C68.1720671,124.995153 67.6429931,125.017164 67.2251738,124.767185 L61.4999444,121.361291 L55.774715,124.769107 C55.5811599,124.883527 55.3654943,124.941873 55.1478983,124.941873 Z M61.4999444,119.894086 C61.7175404,119.894086 61.9330305,119.952257 62.126761,120.066678 L67.5299836,123.283734 L66.1335092,117.159693 C66.0338362,116.723846 66.1824682,116.268784 66.5207948,115.97391 L71.258946,111.837296 L64.9902532,111.270608 C64.5389171,111.229556 64.1507541,110.947086 63.9743961,110.533075 L61.4999444,104.762079 L59.0225096,110.533948 C58.8480819,110.945164 58.4599188,111.227635 58.0096356,111.268686 L51.7400654,111.835375 L56.4780411,115.971989 C56.8174206,116.267736 56.9658772,116.721925 56.8653268,117.15882 L55.4699052,123.282686 L60.8731277,120.066678 C61.0666828,119.952257 61.2823485,119.894086 61.4999444,119.894086 Z" id="Shape"></path>
                </g>
            </g>
        </g>
    </g>
</svg>