<?xml version="1.0" encoding="UTF-8"?>
<svg width="27px" height="28px" viewBox="0 0 27 28" version="1.1" xmlns="http://www.w3.org/2000/svg" xmlns:xlink="http://www.w3.org/1999/xlink">
    <title>box (2)</title>
    <g id="sehifeler" stroke="none" stroke-width="1" fill="none" fill-rule="evenodd">
        <g id="shexsi-melumatlarim" transform="translate(-195.000000, -562.000000)" fill="#5B5B5B" fill-rule="nonzero" stroke="#5B5B5B" stroke-width="0.4">
            <g id="Group-2" transform="translate(148.000000, 167.000000)">
                <g id="cedvel-copy" transform="translate(0.000000, 227.000000)">
                    <g id="box-(2)" transform="translate(48.000000, 169.000000)">
                        <path d="M24.7775521,5.88390625 L12.6698437,0.0388020833 C12.5625,-0.01296875 12.4375,-0.01296875 12.3302083,0.0388020833 L0.222447917,5.88390625 C0.0874479167,5.9490625 0.00166666667,6.08578125 0.00166666667,6.23567708 L0.00166666667,20.4309375 C0.00166666667,20.5808333 0.0874479167,20.7175521 0.222447917,20.7827083 L12.3301562,26.6278125 C12.3838021,26.6536979 12.4419271,26.6666667 12.5,26.6666667 C12.5580729,26.6666667 12.6161458,26.6536979 12.6698437,26.6278125 L24.7775521,20.7827083 C24.9125521,20.7175521 24.9983333,20.5808333 24.9983333,20.4309375 L24.9983333,6.23572917 C24.9983333,6.08572917 24.9125,5.94911458 24.7775521,5.88390625 Z M12.5,0.824375 L23.7092188,6.23567708 L20.4598958,7.80432292 C20.4393229,7.78864583 20.4176042,7.77416667 20.39375,7.76265625 L9.26067708,2.38817708 L12.5,0.824375 Z M8.37848958,2.82984375 L19.5714063,8.23328125 L17.2789583,9.34 L6.09067708,3.93875 L8.37848958,2.82984375 Z M19.8332813,8.97432292 L19.8332813,13.0652604 L17.6919792,14.0990104 L17.6919792,10.0080729 L19.8332813,8.97432292 Z M24.2170833,20.1858333 L12.890625,25.6536458 L12.890625,12.3259375 L15.5923438,11.0216667 C15.7866146,10.9278646 15.8680729,10.694375 15.7742708,10.5000521 C15.6804688,10.3058333 15.4469792,10.2242708 15.2526563,10.318125 L12.5,11.6470312 L11.416875,11.1241146 C11.2225521,11.0302083 10.9890625,11.1117708 10.8952604,11.3060417 C10.8014583,11.5003125 10.8829167,11.7338542 11.0771875,11.8276562 L12.109375,12.3259375 L12.109375,25.6536458 L0.782916667,20.1857292 L0.782916667,6.85802083 L9.40791667,11.0218229 C9.46265625,11.0482813 9.52052083,11.0607812 9.57744792,11.0607812 C9.72265625,11.0607812 9.86213542,10.9794271 9.92947917,10.8398958 C10.0232813,10.645625 9.94182292,10.4120833 9.74755208,10.3182813 L1.29078125,6.23567708 L5.17125,4.36234375 L16.9053125,10.0270833 C16.9070313,10.0294792 16.9089583,10.0316146 16.9107292,10.0339583 L16.9107292,14.7214062 C16.9107292,14.8558333 16.9798438,14.9807813 17.0936979,15.0522917 C17.1569271,15.0919792 17.2290625,15.1120312 17.3014063,15.1120312 C17.3593229,15.1120312 17.4173958,15.0991667 17.4711979,15.0731771 L20.39375,13.6622917 C20.52875,13.5971354 20.6145312,13.4604688 20.6145312,13.3105208 L20.6145312,8.59723958 L24.2170833,6.85807292 L24.2170833,20.1858333 L24.2170833,20.1858333 Z" id="Shape"></path>
                        <path d="M4.0065625,18.6707813 L2.22973958,17.8130208 C2.03536458,17.7191146 1.80192708,17.8006771 1.708125,17.9949479 C1.61432292,18.1892188 1.69578125,18.4227604 1.89005208,18.5165625 L3.666875,19.3743229 C3.72161458,19.4007812 3.77947917,19.4132812 3.83640625,19.4132812 C3.98161458,19.4132812 4.12109375,19.3319271 4.1884375,19.1923958 C4.28229167,18.9980729 4.20083333,18.7646354 4.0065625,18.6707813 Z" id="Path"></path>
                        <path d="M5.64182292,17.6063542 L2.2321875,15.9603125 C2.03786458,15.8665104 1.804375,15.9479687 1.71057292,16.1422917 C1.61682292,16.3365625 1.69828125,16.5701042 1.89255208,16.6639063 L5.3021875,18.3099479 C5.35692708,18.3363542 5.41479167,18.3489062 5.47171875,18.3489062 C5.61692708,18.3489062 5.75640625,18.2675521 5.82375,18.1280208 C5.91755208,17.9336458 5.83609375,17.7001042 5.64182292,17.6063542 Z" id="Path"></path>
                    </g>
                </g>
            </g>
        </g>
    </g>
</svg>