<?xml version="1.0" encoding="UTF-8"?>
<svg width="30px" height="30px" viewBox="0 0 30 30" version="1.1" xmlns="http://www.w3.org/2000/svg" xmlns:xlink="http://www.w3.org/1999/xlink">
    <title>Group 12</title>
    <g id="sehifeler" stroke="none" stroke-width="1" fill="none" fill-rule="evenodd">
        <g id="ana-sehife" transform="translate(-1049.000000, -3405.000000)" fill="#FEFEFE">
            <g id="Group-16" transform="translate(930.000000, 3405.000000)">
                <g id="Group-12" transform="translate(119.072420, 0.133173)">
                    <path d="M14.2316049,1.6582716 C7.30037037,1.6582716 1.66111111,7.29469136 1.66111111,14.2316049 C1.66111111,21.1628395 7.30037037,26.8049383 14.2316049,26.8049383 C21.1685185,26.8049383 26.8049383,21.1628395 26.8049383,14.2316049 C26.8049383,7.29469136 21.1685185,1.6582716 14.2316049,1.6582716 M14.2316049,28.4632099 C6.38888889,28.4632099 -5.68434189e-14,22.0771605 -5.68434189e-14,14.2316049 C-5.68434189e-14,6.38320988 6.38888889,2.48689958e-14 14.2316049,2.48689958e-14 C22.0771605,2.48689958e-14 28.4660494,6.38320988 28.4660494,14.2316049 C28.4660494,22.0771605 22.0771605,28.4632099 14.2316049,28.4632099" id="Fill-8"></path>
                    <path d="M17.986284,6.72707407 L16.0412222,6.72423457 C13.863321,6.72423457 12.4520864,8.16954321 12.4520864,10.4099136 L12.4520864,12.1107778 L10.5013457,12.1107778 C10.3309753,12.1107778 10.194679,12.2413951 10.194679,12.4146049 L10.194679,14.8707778 C10.194679,15.0411481 10.3309753,15.1774444 10.5013457,15.1774444 L12.4520864,15.1774444 L12.4520864,21.3846049 C12.4520864,21.5606543 12.5912222,21.6941111 12.7587531,21.6941111 L15.3001111,21.6941111 C15.473321,21.6941111 15.6124568,21.5606543 15.6124568,21.3846049 L15.6124568,15.1774444 L17.8925802,15.1774444 C18.0544321,15.1774444 18.1935679,15.0411481 18.1935679,14.8707778 L18.1964074,12.4146049 C18.1964074,12.3350988 18.1623333,12.2555926 18.1055432,12.195963 C18.0459136,12.1363333 17.9720864,12.1107778 17.8925802,12.1107778 L15.6124568,12.1107778 L15.6124568,10.6683086 C15.6124568,9.97546914 15.7743086,9.62620988 16.6801111,9.62620988 L17.9806049,9.62620988 C18.1566543,9.62620988 18.2844321,9.48707407 18.2844321,9.3167037 L18.2844321,7.03090123 C18.2844321,6.86620988 18.1566543,6.72707407 17.986284,6.72707407" id="Fill-13"></path>
                </g>
            </g>
        </g>
    </g>
</svg>