<?xml version="1.0" encoding="UTF-8"?>
<svg width="25px" height="23px" viewBox="0 0 25 23" version="1.1" xmlns="http://www.w3.org/2000/svg" xmlns:xlink="http://www.w3.org/1999/xlink">
    <title>Shape</title>
    <g id="sehifeler" stroke="none" stroke-width="1" fill="none" fill-rule="evenodd">
        <g id="shexsi-melumatlarim" transform="translate(-198.000000, -868.000000)" fill="#5B5B5B" fill-rule="nonzero">
            <g id="Group-2" transform="translate(148.000000, 167.000000)">
                <g id="cedvel-02-copy" transform="translate(0.000000, 672.000000)">
                    <g id="gift" transform="translate(50.000000, 29.000000)">
                        <path d="M23.4375,6.11123727 L18.49375,6.11123727 C18.8484375,5.87325925 19.153125,5.63681657 19.365625,5.42493937 C20.625,4.17977695 20.625,2.15312542 19.365625,0.907963006 C18.1421875,-0.301886543 16.0078125,-0.303421885 14.7828125,0.907963006 C14.10625,1.5758368 12.3078125,4.2949276 12.55625,6.11123727 L12.44375,6.11123727 C12.690625,4.2949276 10.89375,1.5758368 10.2171875,0.907963006 C8.9921875,-0.303421885 6.8578125,-0.301886543 5.634375,0.907963006 C4.375,2.15312542 4.375,4.17977695 5.6328125,5.42493937 C5.846875,5.63681657 6.1515625,5.87325925 6.50625,6.11123727 L1.5625,6.11123727 C0.7015625,6.11123727 0,6.80060586 0,7.64657934 L0,11.4849345 C0,11.9086889 0.35,12.2526055 0.78125,12.2526055 L1.5625,12.2526055 L1.5625,21.4646579 C1.5625,22.3106314 2.2640625,23 3.125,23 L21.875,23 C22.7359375,23 23.4375,22.3106314 23.4375,21.4646579 L23.4375,12.2526055 L24.21875,12.2526055 C24.65,12.2526055 25,11.9086889 25,11.4849345 L25,7.64657934 C25,6.80060586 24.2984375,6.11123727 23.4375,6.11123727 Z M6.7421875,1.99037916 C7.059375,1.67716938 7.4796875,1.50521107 7.9265625,1.50521107 C8.371875,1.50521107 8.7921875,1.67716938 9.109375,1.99037916 C10.1625,3.03134108 11.209375,5.69055354 10.8453125,6.06057098 C10.8453125,6.06057098 10.7796875,6.11123727 10.55625,6.11123727 C9.4765625,6.11123727 7.415625,5.00886167 6.7421875,4.34252321 C6.0875,3.69460886 6.0875,2.63829351 6.7421875,1.99037916 Z M11.71875,21.4646579 L3.125,21.4646579 L3.125,12.2526055 L11.71875,12.2526055 L11.71875,21.4646579 Z M11.71875,10.7172635 L1.5625,10.7172635 L1.5625,7.64657934 L10.55625,7.64657934 L11.71875,7.64657934 L11.71875,10.7172635 Z M15.890625,1.99037916 C16.525,1.36549494 17.625,1.36703028 18.2578125,1.99037916 C18.9125,2.63829351 18.9125,3.69460886 18.2578125,4.34252321 C17.584375,5.00886167 15.5234375,6.11123727 14.44375,6.11123727 C14.2203125,6.11123727 14.1546875,6.06210632 14.153125,6.06057098 C13.790625,5.69055354 14.8375,3.03134108 15.890625,1.99037916 Z M21.875,21.4646579 L13.28125,21.4646579 L13.28125,12.2526055 L21.875,12.2526055 L21.875,21.4646579 Z M23.4375,10.7172635 L13.28125,10.7172635 L13.28125,7.64657934 L14.44375,7.64657934 L23.4375,7.64657934 L23.4375,10.7172635 Z" id="Shape"></path>
                    </g>
                </g>
            </g>
        </g>
    </g>
</svg>