<?xml version="1.0" encoding="UTF-8"?>
<svg width="14px" height="16px" viewBox="0 0 14 16" version="1.1" xmlns="http://www.w3.org/2000/svg" xmlns:xlink="http://www.w3.org/1999/xlink">
    <title>layer_copy</title>
    <g id="sehifeler" stroke="none" stroke-width="1" fill="none" fill-rule="evenodd">
        <g id="mehsul-(abachilar)" transform="translate(-865.000000, -33.000000)" fill="#000000" fill-rule="nonzero">
            <g id="layer_copy" transform="translate(872.000000, 41.000000) scale(-1, 1) translate(-872.000000, -41.000000) translate(865.000000, 33.000000)">
                <path d="M13.0092275,11.3905185 C12.4442395,10.2710265 11.665521,9.29756614 10.6927725,8.49134392 C11.5222096,7.5888254 12.0298982,6.38289947 12.0298982,5.05980952 C12.0299401,2.26984127 9.77350898,0 7,0 C4.22649102,0 1.97005988,2.26984127 1.97005988,5.05980952 C1.97005988,6.38273016 2.47762275,7.5885291 3.30689222,8.49100529 C2.33418563,9.2973545 1.55550898,10.2708995 0.990646707,11.3905185 C0.333317365,12.6933757 0,14.1302857 0,15.6613757 C0,15.848381 0.150143713,16 0.335329341,16 C0.52051497,16 0.670658683,15.848381 0.670658683,15.6613757 C0.670658683,12.9695238 1.7792994,10.5993228 3.7984012,8.95936508 C4.66879042,9.68372487 5.78476647,10.1195767 7,10.1195767 C8.21510778,10.1195767 9.33091617,9.68385185 10.2013054,8.95966138 C12.2206168,10.5994921 13.3293413,12.9695661 13.3293413,15.6613757 C13.3293413,15.848381 13.479485,16 13.6646707,16 C13.8498563,16 14,15.848381 14,15.6613757 C14,14.1302434 13.6666407,12.6933333 13.0092275,11.3905185 Z M2.64071856,5.05980952 C2.64071856,2.64325926 4.59627545,0.677248677 7,0.677248677 C9.40372455,0.677248677 11.3592814,2.64325926 11.3592814,5.05980952 C11.3592814,7.47635979 9.40372455,9.44237037 7,9.44237037 C4.59627545,9.44237037 2.64071856,7.47631746 2.64071856,5.05980952 Z" id="Shape"></path>
            </g>
        </g>
    </g>
</svg>