<?xml version="1.0" encoding="UTF-8"?>
<svg width="29px" height="29px" viewBox="0 0 29 29" version="1.1" xmlns="http://www.w3.org/2000/svg" xmlns:xlink="http://www.w3.org/1999/xlink">
    <title>Group 14</title>
    <g id="sehifeler" stroke="none" stroke-width="1" fill="none" fill-rule="evenodd">
        <g id="ana-sehife" transform="translate(-1130.000000, -3406.000000)" fill="#FEFEFE">
            <g id="Group-16" transform="translate(930.000000, 3405.000000)">
                <g id="Group-14" transform="translate(200.673580, 1.128704)">
                    <path d="M9.20567901,1.6582716 C5.04296296,1.6582716 1.6582716,5.04296296 1.6582716,9.20283951 L1.6582716,17.8065432 C1.6582716,21.9692593 5.04296296,25.3567901 9.20567901,25.3567901 L17.8093827,25.3567901 C21.9720988,25.3567901 25.3596296,21.9692593 25.3596296,17.8065432 L25.3596296,9.20283951 C25.3596296,5.04296296 21.9720988,1.6582716 17.8093827,1.6582716 L9.20567901,1.6582716 Z M17.8093827,27.0150617 L9.20567901,27.0150617 C4.12864198,27.0150617 -5.68434189e-14,22.8835802 -5.68434189e-14,17.8065432 L-5.68434189e-14,9.20283951 C-5.68434189e-14,4.12864198 4.12864198,-3.51718654e-13 9.20567901,-3.51718654e-13 L17.8093827,-3.51718654e-13 C22.8864198,-3.51718654e-13 27.0122222,4.12864198 27.0122222,9.20283951 L27.0122222,17.8065432 C27.0122222,22.8835802 22.8864198,27.0150617 17.8093827,27.0150617 L17.8093827,27.0150617 Z" id="Fill-10"></path>
                    <path d="M22.3772963,5.934 C22.3772963,6.78585185 21.6872963,7.47585185 20.838284,7.47585185 C19.9807531,7.47585185 19.2907531,6.78585185 19.2907531,5.934 C19.2907531,5.07646914 19.9807531,4.38646914 20.838284,4.38646914 C21.6872963,4.38646914 22.3772963,5.07646914 22.3772963,5.934" id="Fill-11"></path>
                    <path d="M13.5063951,8.36603704 C10.8202222,8.36603704 8.63664198,10.5524568 8.63664198,13.2357901 C8.63664198,15.921963 10.8202222,18.1083827 13.5063951,18.1083827 C16.1954074,18.1083827 18.3733086,15.921963 18.3733086,13.2357901 C18.3733086,10.5524568 16.1954074,8.36603704 13.5063951,8.36603704 M13.5063951,20.2380123 C9.64750617,20.2380123 6.51269136,17.0918395 6.51269136,13.2357901 C6.51269136,9.37406173 9.64750617,6.23640741 13.5063951,6.23640741 C17.3681235,6.23640741 20.5057778,9.37406173 20.5057778,13.2357901 C20.5057778,17.0918395 17.3681235,20.2380123 13.5063951,20.2380123" id="Fill-12"></path>
                </g>
            </g>
        </g>
    </g>
</svg>