<?xml version="1.0" encoding="UTF-8"?>
<svg width="20px" height="21px" viewBox="0 0 20 21" version="1.1" xmlns="http://www.w3.org/2000/svg" xmlns:xlink="http://www.w3.org/1999/xlink">
    <title>invitation</title>
    <g id="sehifeler" stroke="none" stroke-width="1" fill="none" fill-rule="evenodd">
        <g id="shexsi-melumatlarim" transform="translate(-198.000000, -1126.000000)" fill="#5B5B5B" fill-rule="nonzero">
            <g id="Group-2" transform="translate(148.000000, 167.000000)">
                <g id="cedvel-(dostlar)-copy" transform="translate(0.000000, 928.000000)">
                    <g id="invitation" transform="translate(50.000000, 31.000000)">
                        <path d="M19.5800407,19.7515447 L11.2375203,13.4287398 C10.4978049,12.8650407 9.50138211,12.864187 8.76252033,13.4278862 L0.41995935,19.7515447 C0.228292683,19.8963821 0.19101626,20.1678049 0.335853659,20.3585772 C0.480691057,20.5502439 0.75296748,20.5857724 0.942886179,20.4426829 L9.28630081,14.1181301 C9.71382114,13.7946748 10.2853252,13.7937805 10.7137398,14.1189837 L19.0571545,20.4426829 C19.1352033,20.5025203 19.2280081,20.5311382 19.319065,20.5311382 C19.4491463,20.5311382 19.5792276,20.4713008 19.6642276,20.3585772 C19.8089837,20.1678049 19.7717073,19.8963821 19.5800407,19.7515447 Z" id="Path"></path>
                        <path d="M19.8463008,7.2645935 C19.7032114,7.07382114 19.429187,7.03565041 19.2392683,7.1804878 L10.8490244,13.5302033 C10.658252,13.6741463 10.6200813,13.9464634 10.7649187,14.1372358 C10.8490244,14.2499593 10.9791057,14.3089431 11.1100813,14.3089431 C11.2019919,14.3089431 11.2939431,14.2803252 11.3719919,14.2213415 L19.7622358,7.87162602 C19.9529675,7.72768293 19.9910976,7.4554065 19.8463008,7.2645935 Z" id="Path"></path>
                        <path d="M9.15101626,13.5293089 L0.760772358,7.1795935 C0.571707317,7.03565041 0.297682927,7.07117886 0.153739837,7.26369919 C0.00890243902,7.45447154 0.0470731707,7.72678862 0.237845528,7.87073171 L8.62808943,14.2204472 C8.70613821,14.2802846 8.79894309,14.3089024 8.89,14.3089024 C9.0200813,14.3089024 9.15101626,14.2499187 9.2351626,14.1363415 C9.37995935,13.9455691 9.34178862,13.6732927 9.15101626,13.5293089 Z" id="Path"></path>
                        <path d="M19.5054878,6.77898374 L18.0823984,5.59349593 C17.8994309,5.44085366 17.6262602,5.46426829 17.4718699,5.64813008 C17.318374,5.83199187 17.3426423,6.1051626 17.5265041,6.25865854 L18.9487398,7.44414634 C19.0493496,7.52739837 19.1056911,7.6496748 19.1056911,7.77800813 L19.1056911,19.5121951 C19.1056911,19.7506911 18.9105691,19.945813 18.6720732,19.945813 L1.32792683,19.945813 C1.08943089,19.945813 0.894308943,19.7506911 0.894308943,19.5121951 L0.894308943,7.77800813 C0.894308943,7.64878049 0.950691057,7.52739837 1.0504065,7.44414634 L2.47264228,6.25865854 C2.65650407,6.1051626 2.68162602,5.83199187 2.52813008,5.64813008 C2.37463415,5.46341463 2.10060976,5.43914634 1.91760163,5.59264228 L0.493658537,6.77898374 C0.197073171,7.02788618 0.0271138211,7.39211382 0.0271138211,7.77800813 L0.0271138211,19.5121951 C0.0271138211,20.2293902 0.610731707,20.8130081 1.32792683,20.8130081 L18.6721138,20.8130081 C19.3893089,20.8130081 19.9729268,20.2293902 19.9729268,19.5121951 L19.9729268,7.77800813 C19.9729268,7.39121951 19.8029268,7.02784553 19.5054878,6.77898374 Z" id="Path"></path>
                        <path d="M17.804878,0 L2.19512195,0 C1.95577236,0 1.76150407,0.194268293 1.76150407,0.433617886 L1.76150407,8.74841463 C1.76150407,8.98776423 1.95577236,9.18203252 2.19512195,9.18203252 C2.43447154,9.18203252 2.62873984,8.98776423 2.62873984,8.74841463 L2.62873984,0.867195122 L17.3713008,0.867195122 L17.3713008,8.75272358 C17.3713008,8.99207317 17.5655691,9.18634146 17.8049187,9.18634146 C18.0442683,9.18634146 18.2385366,8.99207317 18.2385366,8.75272358 L18.2385366,0.433617886 C18.2385366,0.194268293 18.0442276,0 17.804878,0 Z" id="Path"></path>
                        <path d="M10,3.46882114 C9.76065041,3.46882114 9.56638211,3.66308943 9.56638211,3.90243902 L9.56638211,9.10569106 C9.56638211,9.34504065 9.76065041,9.53930894 10,9.53930894 C10.2393496,9.53930894 10.4336179,9.34504065 10.4336179,9.10569106 L10.4336179,3.90243902 C10.4336179,3.66308943 10.2393496,3.46882114 10,3.46882114 Z" id="Path"></path>
                        <path d="M12.601626,6.07044715 L7.39837398,6.07044715 C7.15902439,6.07044715 6.9647561,6.26471545 6.9647561,6.50406504 C6.9647561,6.74341463 7.15902439,6.93768293 7.39837398,6.93768293 L12.601626,6.93768293 C12.8409756,6.93768293 13.0352439,6.74341463 13.0352439,6.50406504 C13.0352439,6.26471545 12.8409756,6.07044715 12.601626,6.07044715 Z" id="Path"></path>
                    </g>
                </g>
            </g>
        </g>
    </g>
</svg>