<?xml version="1.0" encoding="UTF-8"?>
<svg width="13px" height="12px" viewBox="0 0 13 12" version="1.1" xmlns="http://www.w3.org/2000/svg" xmlns:xlink="http://www.w3.org/1999/xlink">
    <title>Shape</title>
    <g id="sehifeler" stroke="none" stroke-width="1" fill="none" fill-rule="evenodd">
        <g id="mehsul-(abachilar)" transform="translate(-941.000000, -36.000000)" fill="#000000" fill-rule="nonzero">
            <path d="M947.5,48 C947.314926,48 947.136498,47.930436 946.997444,47.8040682 C946.472275,47.3276164 945.96595,46.8798751 945.519234,46.4849244 L945.516953,46.4828663 C944.207252,45.3248722 943.076279,44.3248379 942.289368,43.3397249 C941.409721,42.2384317 941,41.194251 941,40.0535451 C941,38.9452543 941.36628,37.9227867 942.031296,37.174356 C942.704247,36.4170754 943.627632,36 944.631653,36 C945.382065,36 946.069298,36.2461496 946.67421,36.7315542 C946.979492,36.9765719 947.25621,37.2764381 947.5,37.6262134 C947.743889,37.2764381 948.020508,36.9765719 948.32589,36.7315542 C948.930801,36.2461496 949.618034,36 950.368446,36 C951.372368,36 952.295853,36.4170754 952.968803,37.174356 C953.63382,37.9227867 954,38.9452543 954,40.0535451 C954,41.194251 953.590378,42.2384317 952.710731,43.339622 C951.923821,44.3248379 950.792946,45.3247693 949.483444,46.4826605 C949.035934,46.8782287 948.528816,47.3266902 948.002457,47.804274 C947.863502,47.930436 947.684975,48 947.5,48 L947.5,48 Z M944.631653,36.7901074 C943.842857,36.7901074 943.118233,37.116729 942.59108,37.7098755 C942.056091,38.3119748 941.761421,39.1442733 941.761421,40.0535451 C941.761421,41.0129318 942.105087,41.8709567 942.875633,42.8355915 C943.620392,43.768017 944.728157,44.7474702 946.01078,45.8815902 L946.013161,45.8836484 C946.461563,46.2801427 946.969872,46.7296333 947.498909,47.2095839 C948.03112,46.7287072 948.540222,46.2784962 948.989517,45.8813844 C950.272041,44.7472644 951.379707,43.768017 952.124466,42.8355915 C952.894913,41.8709567 953.238579,41.0129318 953.238579,40.0535451 C953.238579,39.1442733 952.943909,38.3119748 952.40892,37.7098755 C951.881866,37.116729 951.157143,36.7901074 950.368446,36.7901074 C949.790611,36.7901074 949.260086,36.9806881 948.791649,37.3564985 C948.374191,37.6915583 948.083389,38.1151168 947.912895,38.4114842 C947.825218,38.5638871 947.670891,38.6548554 947.5,38.6548554 C947.329109,38.6548554 947.174782,38.5638871 947.087105,38.4114842 C946.91671,38.1151168 946.625908,37.6915583 946.208351,37.3564985 C945.739914,36.9806881 945.209389,36.7901074 944.631653,36.7901074 Z" id="Shape" transform="translate(947.500000, 42.000000) scale(-1, -1) rotate(180.000000) translate(-947.500000, -42.000000) "></path>
        </g>
    </g>
</svg>