<?xml version="1.0" encoding="UTF-8"?>
<svg width="30px" height="30px" viewBox="0 0 30 30" version="1.1" xmlns="http://www.w3.org/2000/svg" xmlns:xlink="http://www.w3.org/1999/xlink">
    <title>Group 11</title>
    <g id="sehifeler" stroke="none" stroke-width="1" fill="none" fill-rule="evenodd">
        <g id="ana-sehife" transform="translate(-1008.000000, -3405.000000)" fill="#FEFEFE">
            <g id="Group-16" transform="translate(930.000000, 3405.000000)">
                <g id="Group-11" transform="translate(78.814753, 0.133173)">
                    <path d="M8.19339506,18.8355802 L10.8511728,18.8355802 L10.8511728,10.8423704 L8.19339506,10.8423704 L8.19339506,18.8355802 Z M9.53932099,6.992 C8.63067901,6.992 8.03438272,7.58545679 8.03438272,8.372 C8.03438272,9.13866667 8.61364198,9.752 9.50524691,9.752 L9.52228395,9.752 C10.447963,9.752 11.0272222,9.13866667 11.0272222,8.372 C11.0016667,7.58545679 10.447963,6.992 9.53932099,6.992 L9.53932099,6.992 Z M20.4316667,14.2526173 L20.4316667,18.8355802 L17.7767284,18.8355802 L17.7767284,14.5621235 C17.7767284,13.4859506 17.3933951,12.753358 16.427963,12.753358 C15.6953704,12.753358 15.2580864,13.2474321 15.065,13.7244691 C14.9968519,13.897679 14.9798148,14.1361975 14.9798148,14.374716 L14.9798148,18.8355802 L12.3191975,18.8355802 C12.3191975,18.8355802 12.3532716,11.5948395 12.3191975,10.8423704 L14.9798148,10.8423704 L14.9798148,11.9781728 C14.9741358,11.9866914 14.9656173,11.9923704 14.9627778,12.0008889 L14.9798148,12.0008889 L14.9798148,11.9781728 C15.3290741,11.4329877 15.9594444,10.6578025 17.370679,10.6578025 C19.1198148,10.6578025 20.4316667,11.7964444 20.4316667,14.2526173 L20.4316667,14.2526173 Z" id="Fill-3"></path>
                    <path d="M14.2344444,1.6582716 C7.30037037,1.6582716 1.66111111,7.29469136 1.66111111,14.2316049 C1.66111111,21.1628395 7.30037037,26.8049383 14.2344444,26.8049383 C21.1685185,26.8049383 26.8077778,21.1628395 26.8077778,14.2316049 C26.8077778,7.29469136 21.1685185,1.6582716 14.2344444,1.6582716 M14.2344444,28.4632099 C6.38888889,28.4632099 -1.33226763e-13,22.0771605 -1.33226763e-13,14.2316049 C-1.33226763e-13,6.38320988 6.38888889,2.48689958e-14 14.2344444,2.48689958e-14 C22.0771605,2.48689958e-14 28.4688889,6.38320988 28.4688889,14.2316049 C28.4688889,22.0771605 22.0771605,28.4632099 14.2344444,28.4632099" id="Fill-5"></path>
                </g>
            </g>
        </g>
    </g>
</svg>