<?xml version="1.0" encoding="UTF-8"?>
<svg width="29px" height="39px" viewBox="0 0 29 39" version="1.1" xmlns="http://www.w3.org/2000/svg" xmlns:xlink="http://www.w3.org/1999/xlink">
    <title>Group</title>
    <g id="sehifeler" stroke="none" stroke-width="1" fill="none" fill-rule="evenodd">
        <g id="əlaqə" transform="translate(-1074.000000, -328.000000)" fill="#00AB34" fill-rule="nonzero">
            <g id="Group-2" transform="translate(939.000000, 312.000000)">
                <g id="Group" transform="translate(135.000000, 16.000000)">
                    <path d="M14.26167,9.90660545e-15 C6.39761736,9.90660545e-15 2.11506026e-12,6.39761736 2.11506026e-12,14.26167 C2.11506026e-12,16.8505825 1.16106772,19.6349638 1.20972518,19.7524129 C1.58472321,20.6425089 2.3246522,22.0250519 2.85820644,22.8354504 L12.6366785,37.6516476 C13.0368442,38.259027 13.6291229,38.6071795 14.26167,38.6071795 C14.894217,38.6071795 15.4864957,38.259027 15.8866614,37.6524865 L25.6659724,22.8354504 C26.2003655,22.0250519 26.9394556,20.6425089 27.3144536,19.7524129 C27.3631111,19.6358028 28.5233399,16.8514214 28.5233399,14.26167 C28.5233399,6.39761736 22.1257226,9.90660545e-15 14.26167,9.90660545e-15 Z M25.7674819,19.1014096 C25.4327521,19.8992242 24.7439974,21.1852913 24.264973,21.9117975 L14.4856621,36.7288337 C14.2927101,37.0216174 14.2314688,37.0216174 14.0385168,36.7288337 L4.25920579,21.9117975 C3.78018146,21.1852913 3.09142669,19.8983853 2.75669691,19.1005707 C2.74243524,19.0661749 1.67784352,16.5032689 1.67784352,14.26167 C1.67784352,7.32294806 7.32294806,1.67784352 14.26167,1.67784352 C21.2003918,1.67784352 26.8454964,7.32294806 26.8454964,14.26167 C26.8454964,16.5066246 25.7783879,19.0762419 25.7674819,19.1014096 Z" id="Shape"></path>
                    <path d="M14.26167,6.71221302 C10.0981012,6.71221302 6.7113741,10.0997791 6.7113741,14.2625089 C6.7113741,18.4252387 10.0981012,21.8128047 14.26167,21.8128047 C18.4252387,21.8128047 21.8119658,18.4252387 21.8119658,14.2625089 C21.8119658,10.0997791 18.4252387,6.71221302 14.26167,6.71221302 Z M14.26167,20.1349612 C11.0242709,20.1349612 8.38921762,17.5007469 8.38921762,14.2625089 C8.38921762,11.0242709 11.0242709,8.39005654 14.26167,8.39005654 C17.499069,8.39005654 20.1341223,11.0242709 20.1341223,14.2625089 C20.1341223,17.5007469 17.499069,20.1349612 14.26167,20.1349612 Z" id="Shape"></path>
                </g>
            </g>
        </g>
    </g>
</svg>