<?xml version="1.0" encoding="UTF-8"?>
<svg width="23px" height="23px" viewBox="0 0 23 23" version="1.1" xmlns="http://www.w3.org/2000/svg" xmlns:xlink="http://www.w3.org/1999/xlink">
    <title>logout (1)</title>
    <g id="sehifeler" stroke="none" stroke-width="1" fill="none" fill-rule="evenodd">
        <g id="shexsi-melumatlarim" transform="translate(-198.000000, -1219.000000)" fill="#5B5B5B" fill-rule="nonzero">
            <g id="Group-2" transform="translate(148.000000, 167.000000)">
                <g id="cedvel--(logout)-copy-2" transform="translate(0.000000, 1020.000000)">
                    <g id="logout-(1)" transform="translate(50.000000, 32.000000)">
                        <path d="M22.2378168,10.7605842 L13.1513386,10.7605842 C12.7553606,10.7605842 12.4339897,10.4392133 12.4339897,10.0432352 C12.4339897,9.64725724 12.7553606,9.32588631 13.1513386,9.32588631 L22.2378168,9.32588631 C22.6337948,9.32588631 22.9551657,9.64725724 22.9551657,10.0432352 C22.9551657,10.4392133 22.6337948,10.7605842 22.2378168,10.7605842 Z" id="Path"></path>
                        <path d="M18.6510721,14.3473288 C18.4673566,14.3473288 18.2838161,14.2774504 18.1440591,14.1369929 C17.8638447,13.8566033 17.8638447,13.4023057 18.1440591,13.1220913 L21.223966,10.0423596 L18.1440591,6.9624528 C17.8638447,6.68223838 17.8638447,6.22794072 18.1440591,5.94772629 C18.4244487,5.66733674 18.8787463,5.66733674 19.1589608,5.94772629 L22.7457054,9.53447093 C23.0259198,9.81468536 23.0259198,10.268983 22.7457054,10.5491974 L19.1589608,14.1359421 C19.0183281,14.2774504 18.8347877,14.3473288 18.6510721,14.3473288 L18.6510721,14.3473288 Z" id="Path"></path>
                        <path d="M7.65178029,22.9555159 C7.44704859,22.9555159 7.25282498,22.926794 7.05877649,22.8665479 L1.30264683,20.9488304 C0.519447513,20.6752711 0,19.9454876 0,19.1297134 L0,1.91333911 C0,0.858331799 0.857981554,0.000350268031 1.91298886,0.000350268031 C2.11754539,0.000350268031 2.31176901,0.029072269 2.50599262,0.0893183704 L8.2619472,2.00703582 C9.04532164,2.28059517 9.56459398,3.01037858 9.56459398,3.82615285 L9.56459398,21.0425271 C9.56459398,22.0975344 8.7067876,22.9555159 7.65178029,22.9555159 Z M1.91298886,1.4350481 C1.64993755,1.4350481 1.43469786,1.65028784 1.43469786,1.91333911 L1.43469786,19.1297134 C1.43469786,19.3333942 1.57147751,19.5227141 1.76657683,19.5906661 L7.49573587,21.499802 C7.53689237,21.5131122 7.59048336,21.5208181 7.65178029,21.5208181 C7.91483156,21.5208181 8.12989613,21.3055784 8.12989613,21.0425271 L8.12989613,3.82615285 C8.12989613,3.62247198 7.99311647,3.43315212 7.7980172,3.36520012 L2.06885812,1.45606418 C2.02770161,1.44275404 1.97411062,1.4350481 1.91298886,1.4350481 Z" id="Shape"></path>
                        <path d="M14.5860365,7.65213053 C14.1900585,7.65213053 13.8686875,7.3307596 13.8686875,6.9347816 L13.8686875,2.63068804 C13.8686875,1.97165873 13.3322521,1.4350481 12.6732228,1.4350481 L1.91298886,1.4350481 C1.51701087,1.4350481 1.19563994,1.11367722 1.19563994,0.717699173 C1.19563994,0.321721175 1.51701087,0.000350268031 1.91298886,0.000350268031 L12.6732228,0.000350268031 C14.1242081,0.000350268031 15.3033854,1.17970273 15.3033854,2.63068804 L15.3033854,6.9347816 C15.3033854,7.3307596 14.9820145,7.65213053 14.5860365,7.65213053 Z" id="Path"></path>
                        <path d="M12.6732228,20.0861202 L8.84724505,20.0861202 C8.45126706,20.0861202 8.12989613,19.7647493 8.12989613,19.3687713 C8.12989613,18.9727933 8.45126706,18.6514224 8.84724505,18.6514224 L12.6732228,18.6514224 C13.3322521,18.6514224 13.8686875,18.1148117 13.8686875,17.4557825 L13.8686875,13.1516889 C13.8686875,12.7557109 14.1900585,12.43434 14.5860365,12.43434 C14.9820145,12.43434 15.3033854,12.7557109 15.3033854,13.1516889 L15.3033854,17.4557825 C15.3033854,18.9067678 14.1242081,20.0861202 12.6732228,20.0861202 L12.6732228,20.0861202 Z" id="Path"></path>
                    </g>
                </g>
            </g>
        </g>
    </g>
</svg>