<?xml version="1.0" encoding="UTF-8"?>
<svg width="26px" height="17px" viewBox="0 0 26 17" version="1.1" xmlns="http://www.w3.org/2000/svg" xmlns:xlink="http://www.w3.org/1999/xlink">
    <title>video-camera</title>
    <g id="sehifeler" stroke="none" stroke-width="1" fill="none" fill-rule="evenodd">
        <g id="shexsi-melumatlarim" transform="translate(-198.000000, -1037.000000)" fill="#5B5B5B" fill-rule="nonzero">
            <g id="Group-2" transform="translate(148.000000, 167.000000)">
                <g id="cedvel-(masterklass)-copy" transform="translate(0.000000, 835.000000)">
                    <g id="video-camera" transform="translate(50.000000, 35.000000)">
                        <path d="M25.5527238,2.04275974 C25.2790711,1.8710487 24.9372636,1.85537338 24.6494686,2.00130844 L18.5662301,5.08818831 L18.5662301,2.8443539 C18.5662301,1.28361039 17.3193724,0.0183798701 15.7812929,0.0183798701 L2.78493724,0.0183798701 C1.24685774,0.0183798701 0,1.28361039 0,2.8443539 L0,14.14825 C0,15.7089935 1.24685774,16.974224 2.78493724,16.974224 L15.7812929,16.974224 C17.3193724,16.974224 18.5662301,15.7089935 18.5662301,14.14825 L18.5662301,11.9044156 L24.6494686,14.9960422 C25.108113,15.2285779 25.6656444,15.0398669 25.8948577,14.5744643 C25.9600209,14.4421623 25.9935816,14.2961169 25.9927802,14.14825 L25.9927802,2.8443539 C25.9927802,2.51782143 25.826431,2.21452597 25.5527238,2.04275974 Z M16.7096234,14.14825 C16.7096234,14.6685162 16.2940042,15.0902597 15.7812929,15.0902597 L2.78493724,15.0902597 C2.27222594,15.0902597 1.85660669,14.6685162 1.85660669,14.14825 L1.85660669,2.8443539 C1.85660669,2.32408766 2.27222594,1.90234416 2.78493724,1.90234416 L15.7812929,1.90234416 C16.2940042,1.90234416 16.7096234,2.32408766 16.7096234,2.8443539 L16.7096234,14.14825 Z M24.1361046,12.6241558 L18.5662301,9.79818182 L18.5662301,7.19453247 L24.1361046,4.36855844 L24.1361046,12.6241558 L24.1361046,12.6241558 Z" id="Shape"></path>
                        <path d="M9.28314226,4.72837338 C7.23235146,4.72837338 5.56987448,6.4153474 5.56987448,8.49635714 C5.56987448,10.5773669 7.23235146,12.2643409 9.28314226,12.2643409 C11.3339331,12.2643409 12.99641,10.5773669 12.99641,8.49635714 C12.99641,6.4153474 11.3338787,4.72837338 9.28314226,4.72837338 Z M9.28314226,10.3803214 C8.25777406,10.3803214 7.42653556,9.53683442 7.42653556,8.49635714 C7.42653556,7.45587987 8.25777406,6.61239286 9.28314226,6.61239286 C10.3085105,6.61239286 11.139749,7.45587987 11.139749,8.49635714 C11.139749,9.53683442 10.3085105,10.3803214 9.28314226,10.3803214 Z" id="Shape"></path>
                    </g>
                </g>
            </g>
        </g>
    </g>
</svg>