<?xml version="1.0" encoding="UTF-8"?>
<svg width="36px" height="36px" viewBox="0 0 36 36" version="1.1" xmlns="http://www.w3.org/2000/svg" xmlns:xlink="http://www.w3.org/1999/xlink">
    <title>Group 10</title>
    <g id="sehifeler" stroke="none" stroke-width="1" fill="none" fill-rule="evenodd">
        <g id="əlaqə" transform="translate(-1067.000000, -800.000000)" fill="#00AB34" fill-rule="nonzero">
            <g id="Group-5" transform="translate(935.000000, 781.000000)">
                <g id="3388300" transform="translate(132.000000, 19.000000)">
                    <g id="Group-10" transform="translate(0.000000, 0.000000)">
                        <path d="M14.25,36 C14.154,36 14.0565,35.982 13.9635,35.943 C13.683,35.8275 13.5,35.553 13.5,35.25 L13.5,31.5 L11.25,31.5 C9.183,31.5 7.5,29.817 7.5,27.75 L7.5,21.75 C7.5,21.336 7.836,21 8.25,21 C8.664,21 9,21.336 9,21.75 L9,27.75 C9,28.9905 10.0095,30 11.25,30 L14.25,30 C14.664,30 15,30.336 15,30.75 L15,33.4395 L18.219,30.2205 C18.36,30.0795 18.5505,30 18.75,30 L32.25,30 C33.4905,30 34.5,28.9905 34.5,27.75 L34.5,15.75 C34.5,14.5095 33.4905,13.5 32.25,13.5 L30.75,13.5 C30.336,13.5 30,13.164 30,12.75 C30,12.336 30.336,12 30.75,12 L32.25,12 C34.317,12 36,13.683 36,15.75 L36,27.75 C36,29.817 34.317,31.5 32.25,31.5 L19.0605,31.5 L14.7795,35.781 C14.637,35.9235 14.445,36 14.25,36 Z" id="Path"></path>
                        <path d="M25.6185,19.5 L2.8815,19.5 C1.293,19.5 0,18.1545 0,16.5 L0,3 C0,1.3455 1.293,5.32907052e-15 2.8815,5.32907052e-15 L25.6185,5.32907052e-15 C27.207,5.32907052e-15 28.5,1.3455 28.5,3 L28.5,16.5 C28.5,18.1545 27.207,19.5 25.6185,19.5 Z M2.8815,1.5 C2.1195,1.5 1.5,2.1735 1.5,3 L1.5,16.5 C1.5,17.3265 2.1195,18 2.8815,18 L25.6185,18 C26.3805,18 27,17.3265 27,16.5 L27,3 C27,2.1735 26.3805,1.5 25.6185,1.5 L2.8815,1.5 Z" id="Shape"></path>
                        <path d="M14.25,11.9925 C13.755,11.9925 13.2615,11.8725 12.8115,11.6325 L0.3975,5.0115 C0.0315,4.8165 -0.1065,4.362 0.0885,3.996 C0.2835,3.6315 0.738,3.4935 1.104,3.687 L13.518,10.308 C13.977,10.5525 14.526,10.5525 14.985,10.308 L27.399,3.687 C27.765,3.495 28.218,3.6315 28.4145,3.996 C28.6095,4.362 28.4715,4.815 28.1055,5.0115 L15.6915,11.6325 C15.2385,11.8725 14.745,11.9925 14.25,11.9925 Z" id="Path"></path>
                    </g>
                </g>
            </g>
        </g>
    </g>
</svg>