<?xml version="1.0" encoding="UTF-8"?>
<svg width="28px" height="19px" viewBox="0 0 28 19" version="1.1" xmlns="http://www.w3.org/2000/svg" xmlns:xlink="http://www.w3.org/1999/xlink">
    <title>credit-card (1)</title>
    <g id="sehifeler" stroke="none" stroke-width="1" fill="none" fill-rule="evenodd">
        <g id="shexsi-melumatlarim" transform="translate(-196.000000, -639.000000)" fill="#5B5B5B" fill-rule="nonzero">
            <g id="Group-2" transform="translate(148.000000, 167.000000)">
                <g id="cedvel-copy" transform="translate(0.000000, 227.000000)">
                    <g id="credit-card-(1)" transform="translate(48.000000, 245.000000)">
                        <path d="M25.0833516,0.0185 L2.91664844,0.0185 C1.309,0.0185 0,1.34827778 0,2.9815 L0,16.0185556 C0,17.6517222 1.309,18.9815 2.91664844,18.9815 L25.0832969,18.9815 C26.6909453,18.9815 27.9999453,17.6517222 27.9999453,16.0185556 L27.9999453,2.9815 C27.9999453,1.34827778 26.691,0.0185 25.0833516,0.0185 Z M26.8333516,16.0185 C26.8333516,16.9986667 26.0482031,17.7962778 25.0833516,17.7962778 L2.91664844,17.7962778 C1.95179687,17.7962778 1.16664844,16.9986667 1.16664844,16.0185 L1.16664844,2.9815 C1.16664844,2.00133333 1.95179687,1.20372222 2.91664844,1.20372222 L25.0832969,1.20372222 C26.0481484,1.20372222 26.8333516,2.00133333 26.8333516,2.9815 L26.8333516,16.0185 L26.8333516,16.0185 Z" id="Shape"></path>
                        <path d="M27.4166484,3.57405556 L0.583351562,3.57405556 C0.261351563,3.57405556 0,3.83955556 0,4.16666667 L0,7.72222222 C0,8.04933333 0.261351563,8.31483333 0.583351562,8.31483333 L27.4167031,8.31483333 C27.7387031,8.31483333 28.0000547,8.04933333 28.0000547,7.72222222 L28.0000547,4.16666667 C28.0000547,3.83955556 27.7386484,3.57405556 27.4166484,3.57405556 Z M26.8333516,7.12961111 L1.16664844,7.12961111 L1.16664844,4.75922222 L26.8333516,4.75922222 L26.8333516,7.12961111 L26.8333516,7.12961111 Z" id="Shape"></path>
                        <path d="M11.0833516,11.8703889 L4.08335156,11.8703889 C3.76135156,11.8703889 3.5,12.1358889 3.5,12.463 C3.5,12.7901111 3.76135156,13.0555556 4.08335156,13.0555556 L11.0833516,13.0555556 C11.4053516,13.0555556 11.6667031,12.7900556 11.6667031,12.4629444 C11.6667031,12.1358333 11.4053516,11.8703889 11.0833516,11.8703889 Z" id="Path"></path>
                        <path d="M11.0833516,14.2407222 L4.08335156,14.2407222 C3.76135156,14.2407222 3.5,14.5062222 3.5,14.8333333 C3.5,15.1604444 3.76135156,15.4259444 4.08335156,15.4259444 L11.0833516,15.4259444 C11.4053516,15.4259444 11.6667031,15.1604444 11.6667031,14.8333333 C11.6667031,14.5062222 11.4053516,14.2407222 11.0833516,14.2407222 Z" id="Path"></path>
                        <path d="M22.75,10.6851667 L21.5833516,10.6851667 C20.6185,10.6851667 19.8333516,11.4827778 19.8333516,12.4629444 L19.8333516,13.6481111 C19.8333516,14.6282778 20.6185,15.4258889 21.5833516,15.4258889 L22.75,15.4258889 C23.7148516,15.4258889 24.5,14.6282778 24.5,13.6481111 L24.5,12.4629444 C24.5,11.4828333 23.7148516,10.6851667 22.75,10.6851667 Z M23.3333516,13.6481667 C23.3333516,13.9752778 23.072,14.2407778 22.75,14.2407778 L21.5833516,14.2407778 C21.2613516,14.2407778 21,13.9752778 21,13.6481667 L21,12.463 C21,12.1358889 21.2613516,11.8703889 21.5833516,11.8703889 L22.75,11.8703889 C23.072,11.8703889 23.3333516,12.1358889 23.3333516,12.463 L23.3333516,13.6481667 Z" id="Shape"></path>
                    </g>
                </g>
            </g>
        </g>
    </g>
</svg>