<?xml version="1.0" encoding="UTF-8"?>
<svg width="25px" height="25px" viewBox="0 0 25 25" version="1.1" xmlns="http://www.w3.org/2000/svg" xmlns:xlink="http://www.w3.org/1999/xlink">
    <title>appointment</title>
    <g id="sehifeler" stroke="none" stroke-width="1" fill="none" fill-rule="evenodd">
        <g id="shexsi-melumatlarim" transform="translate(-198.000000, -699.000000)" fill="#5B5B5B" fill-rule="nonzero">
            <g id="Group-2" transform="translate(148.000000, 167.000000)">
                <g id="cedvel-copy" transform="translate(0.000000, 227.000000)">
                    <g id="appointment" transform="translate(50.000000, 305.000000)">
                        <path d="M22.5585938,2.1484375 L20.2311035,2.1484375 L20.2311035,1.46484375 C20.2311035,0.657128906 19.5739746,0 18.7662598,0 C17.9585449,0 17.301416,0.657128906 17.301416,1.46484375 L17.301416,2.1484375 L9.09829102,2.1484375 L9.09829102,1.46484375 C9.09829102,0.657128906 8.44116211,0 7.63344727,0 C6.82573242,0 6.16860352,0.657128906 6.16860352,1.46484375 L6.16860352,2.16650391 C6.12709961,2.1550293 6.08359375,2.1484375 6.03842773,2.1484375 L4.09291992,2.1484375 C2.74672852,2.1484375 1.65151367,3.24365234 1.65151367,4.58984375 L1.65151367,12.9068848 C1.65151367,13.1765625 1.87016602,13.395166 2.13979492,13.395166 C2.40942383,13.395166 2.62807617,13.1765625 2.62807617,12.9068848 L2.62807617,7.17773438 L20.2311035,7.17773438 C20.5007324,7.17773438 20.7193848,6.95913086 20.7193848,6.68945312 C20.7193848,6.41977539 20.5007324,6.20117188 20.2311035,6.20117188 L2.62807617,6.20117188 L2.62807617,4.58984375 C2.62807617,3.78212891 3.28520508,3.125 4.09291992,3.125 L6.03842773,3.125 C6.08359375,3.125 6.12709961,3.11835937 6.16860352,3.10693359 L6.16860352,3.73535156 C6.16860352,4.54306641 6.82573242,5.20019531 7.63344727,5.20019531 C8.44116211,5.20019531 9.09829102,4.54306641 9.09829102,3.73535156 L9.09829102,3.125 L17.301416,3.125 L17.301416,3.73535156 C17.301416,4.54306641 17.9585449,5.20019531 18.7662598,5.20019531 C19.5739746,5.20019531 20.2311035,4.54306641 20.2311035,3.73535156 L20.2311035,3.125 L22.5585938,3.125 C23.3663086,3.125 24.0234375,3.78212891 24.0234375,4.58984375 L24.0234375,23.1442383 C24.0234375,23.6290039 23.6290527,24.0234375 23.1442383,24.0234375 C22.6594238,24.0234375 22.2650391,23.6290039 22.2650391,23.1442383 L22.2650391,21.8811035 C22.2650391,21.6114258 22.0463867,21.3928223 21.7767578,21.3928223 L16.0970215,21.3928223 C15.8273926,21.3928223 15.6087402,21.6114258 15.6087402,21.8811035 C15.6087402,22.1507813 15.8273926,22.3693848 16.0970215,22.3693848 L21.2884766,22.3693848 L21.2884766,23.1442383 C21.2884766,23.4621582 21.3689453,23.7615723 21.5104004,24.0234375 L1.85546875,24.0234375 C1.37084961,24.0234375 0.9765625,23.6291504 0.9765625,23.1445312 L0.9765625,22.3693848 L11.9055176,22.3693848 C12.1751465,22.3693848 12.3937988,22.1507813 12.3937988,21.8811035 C12.3937988,21.6114258 12.1751465,21.3928223 11.9055176,21.3928223 L7.02680664,21.3928223 C7.8800293,20.6580078 8.42182617,19.5710938 8.42182617,18.359375 C8.42182617,16.1516113 6.62568359,14.3554688 4.41791992,14.3554688 C2.21015625,14.3554688 0.414013672,16.1516113 0.414013672,18.359375 C0.414013672,19.5710937 0.955810547,20.6580078 1.8090332,21.3928223 L0.48828125,21.3928223 C0.218652344,21.3928223 0,21.6114258 0,21.8811035 L0,23.1445312 C0,24.167627 0.832373047,25 1.85546875,25 L23.1442383,25 C24.1674805,25 25,24.1675293 25,23.1442383 L25,4.58984375 C25,3.24365234 23.9047852,2.1484375 22.5585938,2.1484375 Z M8.12172852,3.73535156 C8.12172852,4.00458984 7.90268555,4.22363281 7.63344727,4.22363281 C7.36420898,4.22363281 7.14516602,4.00458984 7.14516602,3.73535156 L7.14516602,1.46484375 C7.14516602,1.19560547 7.36420898,0.9765625 7.63344727,0.9765625 C7.90268555,0.9765625 8.12172852,1.19560547 8.12172852,1.46484375 L8.12172852,3.73535156 Z M19.254541,3.73535156 C19.254541,4.00458984 19.035498,4.22363281 18.7662598,4.22363281 C18.4970215,4.22363281 18.2779785,4.00458984 18.2779785,3.73535156 L18.2779785,1.46484375 C18.2779785,1.19560547 18.4970215,0.9765625 18.7662598,0.9765625 C19.035498,0.9765625 19.254541,1.19560547 19.254541,1.46484375 L19.254541,3.73535156 Z M1.39057617,18.359375 C1.39057617,16.6900879 2.74863281,15.3320312 4.41791992,15.3320312 C6.08720703,15.3320312 7.44526367,16.6900879 7.44526367,18.359375 C7.44526367,20.0286621 6.08720703,21.3867188 4.41791992,21.3867188 C2.74863281,21.3867188 1.39057617,20.0286621 1.39057617,18.359375 Z" id="Shape"></path>
                        <path d="M22.8666504,6.34423828 C22.7758789,6.25341797 22.6499023,6.20117188 22.5214844,6.20117188 C22.3930176,6.20117188 22.2670898,6.25341797 22.1762695,6.34423828 C22.0854492,6.43505859 22.0332031,6.56103516 22.0332031,6.68945312 C22.0332031,6.81787109 22.0854004,6.94384766 22.1762695,7.03466797 C22.2671387,7.12548828 22.3930176,7.17773438 22.5214844,7.17773438 C22.6499023,7.17773438 22.7758789,7.12548828 22.8666504,7.03466797 C22.9574707,6.94384766 23.0097656,6.81787109 23.0097656,6.68945312 C23.0097656,6.56103516 22.9575195,6.43505859 22.8666504,6.34423828 Z" id="Path"></path>
                        <path d="M14.5824707,21.5356445 C14.4916992,21.4448242 14.3657227,21.3930664 14.2373047,21.3930664 C14.1088867,21.3930664 13.9829102,21.4448242 13.8920898,21.5356445 C13.8012695,21.6269531 13.7490234,21.7524414 13.7490234,21.8808594 C13.7490234,22.0097656 13.8012207,22.1352539 13.8920898,22.2265625 C13.9829102,22.3173828 14.1088867,22.3691406 14.2373047,22.3691406 C14.3657227,22.3691406 14.4916992,22.3173828 14.5824707,22.2265625 C14.673291,22.1352539 14.7255859,22.0092773 14.7255859,21.8808594 C14.7255859,21.7524414 14.6733398,21.6269531 14.5824707,21.5356445 Z" id="Path"></path>
                        <path d="M11.0471191,14.84375 C10.0240234,14.84375 9.19165039,15.676123 9.19165039,16.6992188 C9.19165039,17.7223145 10.0240234,18.5546875 11.0471191,18.5546875 C12.0702148,18.5546875 12.9025879,17.7223145 12.9025879,16.6992188 C12.9025879,15.676123 12.0702148,14.84375 11.0471191,14.84375 Z M11.0471191,17.578125 C10.5625,17.578125 10.1682129,17.1838379 10.1682129,16.6992188 C10.1682129,16.2145996 10.5625,15.8203125 11.0471191,15.8203125 C11.5317383,15.8203125 11.9260254,16.2145996 11.9260254,16.6992188 C11.9260254,17.1838379 11.5317383,17.578125 11.0471191,17.578125 Z" id="Shape"></path>
                        <path d="M15.6043945,14.84375 C14.5812988,14.84375 13.7489258,15.676123 13.7489258,16.6992188 C13.7489258,17.7223145 14.5812988,18.5546875 15.6043945,18.5546875 C16.6274902,18.5546875 17.4598633,17.7223145 17.4598633,16.6992188 C17.4598633,15.676123 16.6274902,14.84375 15.6043945,14.84375 Z M15.6043945,17.578125 C15.1197754,17.578125 14.7254883,17.1838379 14.7254883,16.6992188 C14.7254883,16.2145996 15.1197754,15.8203125 15.6043945,15.8203125 C16.0890137,15.8203125 16.4833008,16.2145996 16.4833008,16.6992188 C16.4833008,17.1838379 16.0890137,17.578125 15.6043945,17.578125 Z" id="Shape"></path>
                        <path d="M20.1617187,14.84375 C19.138623,14.84375 18.30625,15.676123 18.30625,16.6992188 C18.30625,17.7223145 19.138623,18.5546875 20.1617187,18.5546875 C21.1848145,18.5546875 22.0171875,17.7223145 22.0171875,16.6992188 C22.0171875,15.676123 21.1848145,14.84375 20.1617187,14.84375 Z M20.1617187,17.578125 C19.6770996,17.578125 19.2828125,17.1838379 19.2828125,16.6992188 C19.2828125,16.2145996 19.6770996,15.8203125 20.1617187,15.8203125 C20.6463379,15.8203125 21.040625,16.2145996 21.040625,16.6992188 C21.040625,17.1838379 20.6463379,17.578125 20.1617187,17.578125 Z" id="Shape"></path>
                        <path d="M6.48984375,9.765625 C5.46674805,9.765625 4.634375,10.597998 4.634375,11.6210938 C4.634375,12.6441895 5.46674805,13.4765625 6.48984375,13.4765625 C7.51293945,13.4765625 8.3453125,12.6441895 8.3453125,11.6210938 C8.3453125,10.597998 7.51293945,9.765625 6.48984375,9.765625 Z M6.48984375,12.5 C6.00522461,12.5 5.6109375,12.1057129 5.6109375,11.6210938 C5.6109375,11.1364746 6.00522461,10.7421875 6.48984375,10.7421875 C6.97446289,10.7421875 7.36875,11.1364746 7.36875,11.6210938 C7.36875,12.1057129 6.97446289,12.5 6.48984375,12.5 Z" id="Shape"></path>
                        <path d="M15.6043945,9.765625 C14.5812988,9.765625 13.7489258,10.597998 13.7489258,11.6210938 C13.7489258,12.6441895 14.5812988,13.4765625 15.6043945,13.4765625 C16.6274902,13.4765625 17.4598633,12.6441895 17.4598633,11.6210938 C17.4598633,10.597998 16.6274902,9.765625 15.6043945,9.765625 Z M15.6043945,12.5 C15.1197754,12.5 14.7254883,12.1057129 14.7254883,11.6210938 C14.7254883,11.1364746 15.1197754,10.7421875 15.6043945,10.7421875 C16.0890137,10.7421875 16.4833008,11.1364746 16.4833008,11.6210938 C16.4833008,12.1057129 16.0890137,12.5 15.6043945,12.5 Z" id="Shape"></path>
                        <path d="M20.1617187,9.765625 C19.138623,9.765625 18.30625,10.597998 18.30625,11.6210938 C18.30625,12.6441895 19.138623,13.4765625 20.1617187,13.4765625 C21.1848145,13.4765625 22.0171875,12.6441895 22.0171875,11.6210938 C22.0171875,10.597998 21.1848145,9.765625 20.1617187,9.765625 Z M20.1617187,12.5 C19.6770996,12.5 19.2828125,12.1057129 19.2828125,11.6210938 C19.2828125,11.1364746 19.6770996,10.7421875 20.1617187,10.7421875 C20.6463379,10.7421875 21.040625,11.1364746 21.040625,11.6210938 C21.040625,12.1057129 20.6463379,12.5 20.1617187,12.5 Z" id="Shape"></path>
                        <path d="M11.0471191,9.765625 C10.0240234,9.765625 9.19165039,10.597998 9.19165039,11.6210938 C9.19165039,12.6441895 10.0240234,13.4765625 11.0471191,13.4765625 C12.0702148,13.4765625 12.9025879,12.6441895 12.9025879,11.6210938 C12.9025879,10.597998 12.0702148,9.765625 11.0471191,9.765625 Z M11.0471191,12.5 C10.5625,12.5 10.1682129,12.1057129 10.1682129,11.6210938 C10.1682129,11.1364746 10.5625,10.7421875 11.0471191,10.7421875 C11.5317383,10.7421875 11.9260254,11.1364746 11.9260254,11.6210938 C11.9260254,12.1057129 11.5317383,12.5 11.0471191,12.5 Z" id="Shape"></path>
                        <path d="M6.15742188,17.1693848 C5.96669922,16.9787109 5.65761719,16.9787109 5.4668457,17.1693848 L3.87670898,18.7595703 L3.33330078,18.2161621 C3.14257812,18.0254883 2.83349609,18.0254883 2.64272461,18.2161621 C2.45205078,18.4068359 2.45205078,18.7160156 2.64272461,18.9067383 L3.53144531,19.7953613 C3.62304687,19.8869141 3.7472168,19.9383789 3.87670898,19.9383789 C4.00620117,19.9383789 4.13037109,19.8869141 4.22197266,19.7953613 L6.15742188,17.8599121 C6.3480957,17.6692383 6.3480957,17.3600586 6.15742188,17.1693848 Z" id="Path"></path>
                    </g>
                </g>
            </g>
        </g>
    </g>
</svg>