<?xml version="1.0" encoding="UTF-8"?>
<svg width="20px" height="23px" viewBox="0 0 20 23" version="1.1" xmlns="http://www.w3.org/2000/svg" xmlns:xlink="http://www.w3.org/1999/xlink">
    <title>Shape</title>
    <g id="sehifeler" stroke="none" stroke-width="1" fill="none" fill-rule="evenodd">
        <g id="shexsi-melumatlarim" transform="translate(-197.000000, -415.000000)" fill="#5B5B5B" fill-rule="nonzero">
            <g id="Group-2" transform="translate(148.000000, 167.000000)">
                <g id="cedvel-copy" transform="translate(0.000000, 227.000000)">
                    <path d="M68.9948901,40.8815951 L67.5641288,26.0515337 C67.5334696,25.7222904 67.2319877,25.4730061 66.8794073,25.4730061 L63.9361267,25.4730061 C63.8952478,22.9989775 61.6980072,21 59,21 C56.3019928,21 54.1047522,22.9989775 54.0638733,25.4730061 L51.1205927,25.4730061 C50.7629024,25.4730061 50.4665304,25.7222904 50.4358712,26.0515337 L49.0051099,40.8815951 C49.0051099,40.900409 49,40.9192229 49,40.9380368 C49,42.6265849 50.6811446,44 52.7506387,44 L65.2493613,44 C67.3188554,44 69,42.6265849 69,40.9380368 C69,40.9192229 69,40.900409 68.9948901,40.8815951 Z M59,22.2699387 C60.9366377,22.2699387 62.5155851,23.6997955 62.556464,25.4730061 L55.443536,25.4730061 C55.4844149,23.6997955 57.0633623,22.2699387 59,22.2699387 Z M65.2493613,42.7300613 L52.7506387,42.7300613 C51.4527338,42.7300613 50.4001022,41.9398773 50.3796627,40.9662577 L51.7491058,26.7476483 L54.0587634,26.7476483 L54.0587634,28.6760736 C54.0587634,29.0288344 54.3653551,29.3110429 54.7485948,29.3110429 C55.1318344,29.3110429 55.4384262,29.0288344 55.4384262,28.6760736 L55.4384262,26.7476483 L62.556464,26.7476483 L62.556464,28.6760736 C62.556464,29.0288344 62.8630557,29.3110429 63.2462954,29.3110429 C63.629535,29.3110429 63.9361267,29.0288344 63.9361267,28.6760736 L63.9361267,26.7476483 L66.2457844,26.7476483 L67.6203373,40.9662577 C67.5998978,41.9398773 66.5421564,42.7300613 65.2493613,42.7300613 Z" id="Shape"></path>
                </g>
            </g>
        </g>
    </g>
</svg>