<?xml version="1.0" encoding="UTF-8"?>
<svg width="20px" height="23px" viewBox="0 0 20 23" version="1.1" xmlns="http://www.w3.org/2000/svg" xmlns:xlink="http://www.w3.org/1999/xlink">
    <title>sosial medi</title>
    <g id="sehifeler" stroke="none" stroke-width="1" fill="none" fill-rule="evenodd">
        <g id="shexsi-melumatlarim" transform="translate(-201.000000, -776.000000)" fill="#5B5B5B" fill-rule="nonzero">
            <g id="Group-2" transform="translate(148.000000, 167.000000)">
                <g id="cedvel-copy" transform="translate(0.000000, 227.000000)">
                    <g id="sosial-medi" transform="translate(53.000000, 382.000000)">
                        <path d="M9.788574,11.0643676 C6.7899868,11.0643676 4.35041094,8.58277097 4.35041094,5.53228509 C4.35041094,2.48179926 6.7899868,4.71417777e-14 9.788574,4.71417777e-14 C12.7871612,4.71417777e-14 15.2267371,2.48179926 15.2267371,5.53228509 C15.2267371,8.58277097 12.7871612,11.0643676 9.788574,11.0643676 Z M9.788574,1.65966525 C7.68954303,1.65966525 5.98183994,3.39672216 5.98183994,5.53228509 C5.98183994,7.66764544 7.68954303,9.40470235 9.788574,9.40470235 C11.887605,9.40470235 13.5953081,7.66764544 13.5953081,5.53228509 C13.5953081,3.39672216 11.887605,1.65966525 9.788574,1.65966525 L9.788574,1.65966525 Z" id="Shape"></path>
                        <path d="M18.7614335,22.3506984 L0.8157145,22.3506984 C0.365438516,22.3506984 1.39019231e-14,21.978935 1.39019231e-14,21.5208657 L1.39019231e-14,17.648246 C1.39019231e-14,14.7505174 2.31769664,12.3927068 5.16612544,12.3927068 L14.4110226,12.3927068 C17.2594514,12.3927068 19.577148,14.7505174 19.577148,17.648246 L19.577148,21.5208657 C19.577148,21.978935 19.2117095,22.3506984 18.7614335,22.3506984 L18.7614335,22.3506984 Z M1.631429,20.6910331 L17.945719,20.6910331 L17.945719,17.648246 C17.945719,15.6656429 16.3598951,14.052372 14.4110226,14.052372 L5.16612544,14.052372 C3.21725288,14.052372 1.631429,15.6656429 1.631429,17.648246 L1.631429,20.6910331 Z" id="Shape"></path>
                    </g>
                </g>
            </g>
        </g>
    </g>
</svg>