<?xml version="1.0" encoding="UTF-8"?>
<svg width="29px" height="29px" viewBox="0 0 29 29" version="1.1" xmlns="http://www.w3.org/2000/svg" xmlns:xlink="http://www.w3.org/1999/xlink">
    <title>Group 9</title>
    <g id="sehifeler" stroke="none" stroke-width="1" fill="none" fill-rule="evenodd">
        <g id="ana-sehife" transform="translate(-930.000000, -3405.000000)" fill="#FEFEFE">
            <g id="Group-16" transform="translate(930.000000, 3405.000000)">
                <g id="Group-9" transform="translate(-0.001136, 0.000000)">
                    <path d="M14.2344444,1.6582716 C7.30320988,1.6582716 1.66111111,7.29469136 1.66111111,14.2316049 C1.66111111,21.1628395 7.30320988,26.8049383 14.2344444,26.8049383 C21.1685185,26.8049383 26.8077778,21.1628395 26.8077778,14.2316049 C26.8077778,7.29469136 21.1685185,1.6582716 14.2344444,1.6582716 M14.2344444,28.4632099 C6.38888889,28.4632099 -1.38555833e-13,22.0771605 -1.38555833e-13,14.2316049 C-1.38555833e-13,6.38320988 6.38888889,2.48689958e-14 14.2344444,2.48689958e-14 C22.0771605,2.48689958e-14 28.4688889,6.38320988 28.4688889,14.2316049 C28.4688889,22.0771605 22.0771605,28.4632099 14.2344444,28.4632099" id="Fill-7"></path>
                    <path d="M21.2335432,8.11644444 C21.2335432,8.37767901 21.159716,8.62755556 21.1057654,8.8802716 C20.8218148,10.212 20.5378642,11.5494074 20.2539136,12.8868148 C19.9614444,14.2696543 19.6661358,15.6496543 19.3736667,17.0353333 C19.1379877,18.1313827 18.9079877,19.2302716 18.6751481,20.326321 C18.6382346,20.4910123 18.5928025,20.6557037 18.5132963,20.809037 C18.3372469,21.1611358 18.0646543,21.2832346 17.6841605,21.1810123 C17.4910741,21.1270617 17.3150247,21.0475556 17.1531728,20.9254568 C15.9520617,20.0310123 14.7452716,19.1394074 13.5441605,18.2421235 C13.4958889,18.2080494 13.4703333,18.2108889 13.4249012,18.2534815 C12.8484815,18.8157037 12.2720617,19.3779259 11.6871235,19.9316296 C11.4911975,20.119037 11.2668765,20.2638519 10.994284,20.3234815 C10.994284,20.3234815 10.9914444,20.326321 10.9914444,20.326321 C10.8579877,20.3518765 10.8551481,20.3461975 10.8636667,20.2184198 C10.9176173,19.5340988 10.9715679,18.8469383 11.0255185,18.1626173 C11.0681111,17.6003951 11.1135432,17.0353333 11.1561358,16.4702716 C11.1589753,16.433358 11.1788519,16.4134815 11.2044074,16.3907654 C12.1130494,15.5616296 13.0216914,14.7296543 13.9303333,13.9005185 C15.3472469,12.6057037 16.7641605,11.3108889 18.1810741,10.0132346 C18.2293457,9.96780247 18.2804568,9.92804938 18.3173704,9.86841975 C18.3684815,9.78607407 18.3457654,9.72076543 18.2520617,9.69520988 C18.0958889,9.64977778 17.9595926,9.7037284 17.8318148,9.78323457 C17.6500864,9.89681481 17.4711975,10.0160741 17.2894691,10.1296543 C14.5550247,11.8475556 11.8234198,13.5682963 9.08897531,15.289037 C9.04354321,15.3202716 9.00379012,15.3231111 8.95267901,15.3089136 C7.72317284,14.9284198 6.49366667,14.5536049 5.26132099,14.1787901 C5.11650617,14.133358 4.96885185,14.1021235 4.84107407,14.0197778 C4.64514815,13.8891605 4.59971605,13.7074321 4.7132963,13.5001481 C4.80416049,13.3297778 4.95465432,13.2275556 5.12218519,13.1452099 C5.48564198,12.966321 5.87181481,12.8385432 6.24946914,12.6908889 C8.32514815,11.8901481 10.4008272,11.0894074 12.4793457,10.2886667 C15.0207037,9.30903704 17.5592222,8.3265679 20.1005802,7.34693827 C20.2851481,7.27595062 20.4753951,7.21916049 20.671321,7.2674321 C20.9751481,7.34693827 21.137,7.57125926 21.2108272,7.8637284 C21.2335432,7.94607407 21.2335432,8.03409877 21.2335432,8.11644444" id="Fill-15"></path>
                </g>
            </g>
        </g>
    </g>
</svg>