<?xml version="1.0" encoding="UTF-8"?>
<svg width="30px" height="30px" viewBox="0 0 30 30" version="1.1" xmlns="http://www.w3.org/2000/svg" xmlns:xlink="http://www.w3.org/1999/xlink">
    <title>Group 10</title>
    <g id="sehifeler" stroke="none" stroke-width="1" fill="none" fill-rule="evenodd">
        <g id="ana-sehife" transform="translate(-969.000000, -3405.000000)" fill="#FEFEFE">
            <g id="Group-16" transform="translate(930.000000, 3405.000000)">
                <g id="Group-10" transform="translate(39.158494, 0.133173)">
                    <path d="M14.2344444,1.6582716 C7.30320988,1.6582716 1.66111111,7.29469136 1.66111111,14.2316049 C1.66111111,21.1628395 7.30320988,26.8049383 14.2344444,26.8049383 C21.1685185,26.8049383 26.8077778,21.1628395 26.8077778,14.2316049 C26.8077778,7.29469136 21.1685185,1.6582716 14.2344444,1.6582716 M14.2344444,28.4632099 C6.38888889,28.4632099 -1.33226763e-13,22.0771605 -1.33226763e-13,14.2316049 C-1.33226763e-13,6.38320988 6.38888889,2.48689958e-14 14.2344444,2.48689958e-14 C22.0771605,2.48689958e-14 28.4688889,6.38320988 28.4688889,14.2316049 C28.4688889,22.0771605 22.0771605,28.4632099 14.2344444,28.4632099" id="Fill-6"></path>
                    <path d="M23.1635556,9.36696296 C22.5559012,9.63671605 21.8999753,9.81844444 21.2099753,9.90079012 C21.9141728,9.48054321 22.4508395,8.81609877 22.7092346,8.01819753 C22.0476296,8.40720988 21.3235556,8.69683951 20.5455309,8.84449383 C19.9265185,8.1885679 19.0405926,7.77116049 18.0694815,7.77116049 C16.1925679,7.77116049 14.6677531,9.29881481 14.6677531,11.1728889 C14.6677531,11.436963 14.7018272,11.695358 14.7529383,11.9423951 C11.9304691,11.8004198 9.42318519,10.4544938 7.74787654,8.39301235 C7.45540741,8.89276543 7.29071605,9.48054321 7.29071605,10.1052346 C7.29071605,11.2807901 7.88985185,12.3257284 8.79849383,12.9305432 C8.24195062,12.9135062 7.71948148,12.7573333 7.25948148,12.5046173 L7.25948148,12.5443704 C7.25948148,14.1941235 8.43503704,15.571284 9.98824691,15.8836296 C9.7042963,15.9602963 9.40046914,16.0000494 9.09380247,16.0000494 C8.87516049,16.0000494 8.66219753,15.9801728 8.45207407,15.9347407 C8.88367901,17.2920247 10.1387407,18.2688148 11.626642,18.3000494 C10.4624444,19.2115309 9.00009877,19.751037 7.4042963,19.751037 C7.1317037,19.751037 6.86195062,19.7311605 6.59787654,19.7084444 C8.09997531,20.6681975 9.88602469,21.2332593 11.8083704,21.2332593 C18.0581235,21.2332593 21.4740494,16.054 21.4740494,11.5675802 L21.4626914,11.1217778 C22.1328148,10.6419012 22.7092346,10.0456049 23.1635556,9.36696296" id="Fill-14"></path>
                </g>
            </g>
        </g>
    </g>
</svg>