<?xml version="1.0" encoding="UTF-8"?>
<svg width="23px" height="23px" viewBox="0 0 23 23" version="1.1" xmlns="http://www.w3.org/2000/svg" xmlns:xlink="http://www.w3.org/1999/xlink">
    <title>1828940</title>
    <g id="sehifeler" stroke="none" stroke-width="1" fill="none" fill-rule="evenodd">
        <g id="shexsi-melumatlarim" transform="translate(-195.000000, -1310.000000)" fill="#5B5B5B" fill-rule="nonzero">
            <g id="Group-2" transform="translate(148.000000, 167.000000)">
                <g id="cedvel--(logout)-copy-3" transform="translate(0.000000, 1112.000000)">
                    <g id="1828940" transform="translate(47.000000, 31.000000)">
                        <path d="M12.4582748,17.25 C12.4582748,17.7792358 12.0292358,18.2082748 11.5,18.2082748 C10.9707642,18.2082748 10.5417252,17.7792358 10.5417252,17.25 C10.5417252,16.7207642 10.9707642,16.2917252 11.5,16.2917252 C12.0292358,16.2917252 12.4582748,16.7207642 12.4582748,17.25 Z" id="Path"></path>
                        <path d="M11.5,23 C5.15864565,23 0,17.8413543 0,11.5 C0,5.15864565 5.15864565,0 11.5,0 C17.8413543,0 23,5.15864565 23,11.5 C23,17.8413543 17.8413543,23 11.5,23 Z M11.5,1.4375 C5.95127107,1.4375 1.4375,5.95127107 1.4375,11.5 C1.4375,17.0487289 5.95127107,21.5625 11.5,21.5625 C17.0487289,21.5625 21.5625,17.0487289 21.5625,11.5 C21.5625,5.95127107 17.0487289,1.4375 11.5,1.4375 Z" id="Shape"></path>
                        <path d="M11.5,14.1354752 C11.1032486,14.1354752 10.78125,13.8134766 10.78125,13.4167252 L10.78125,12.4487991 C10.78125,11.536499 11.3601456,10.718956 12.2206802,10.4152069 C13.3658371,10.0117874 14.1354752,8.79170229 14.1354752,7.90625 C14.1354752,6.45243074 12.9538193,5.27077483 11.5,5.27077483 C10.0461807,5.27077483 8.86452483,6.45243074 8.86452483,7.90625 C8.86452483,8.30300139 8.54252622,8.625 8.14577483,8.625 C7.74902344,8.625 7.42702483,8.30300139 7.42702483,7.90625 C7.42702483,5.66085815 9.25373079,3.83327483 11.5,3.83327483 C13.7462692,3.83327483 15.5729752,5.66085815 15.5729752,7.90625 C15.5729752,9.50483706 14.3107757,11.2020416 12.6988525,11.771286 C12.4114227,11.8718338 12.21875,12.1448746 12.21875,12.4496765 L12.21875,13.4167252 C12.21875,13.8134766 11.8967514,14.1354752 11.5,14.1354752 L11.5,14.1354752 Z" id="Path"></path>
                    </g>
                </g>
            </g>
        </g>
    </g>
</svg>