<?xml version="1.0" encoding="UTF-8"?>
<svg width="30px" height="30px" viewBox="0 0 30 30" version="1.1" xmlns="http://www.w3.org/2000/svg" xmlns:xlink="http://www.w3.org/1999/xlink">
    <title>Group 13</title>
    <g id="sehifeler" stroke="none" stroke-width="1" fill="none" fill-rule="evenodd">
        <g id="ana-sehife" transform="translate(-1089.000000, -3405.000000)" fill="#FEFEFE">
            <g id="Group-16" transform="translate(930.000000, 3405.000000)">
                <g id="Group-13" transform="translate(159.538222, 0.133173)">
                    <path d="M12.8450741,14.0478889 C12.8450741,14.3091235 12.8479136,14.5164074 12.8450741,14.7180123 C12.8393951,14.9366543 12.828037,15.1552963 12.8251975,15.3682593 C12.822358,15.4818395 12.816679,15.5954198 12.8365556,15.7004815 C12.8734691,15.9645556 13.041,16.0582593 13.276679,15.944679 C13.483963,15.8509753 13.6827284,15.7515926 13.8729753,15.6294938 C14.3386543,15.3341852 14.8384074,15.1127037 15.3324815,14.8599877 C15.6334691,14.7066543 15.9174198,14.536284 16.249642,14.4596173 C16.2808765,14.4539383 16.3121111,14.4340617 16.3405062,14.4113457 C16.5250741,14.2949259 16.5619877,14.1018395 16.4256914,13.9257901 C16.3603827,13.8320864 16.261,13.7696173 16.1587778,13.7298642 C15.783963,13.5594938 15.4119877,13.386284 15.0513704,13.1818395 C14.5345802,12.8922099 13.9695185,12.6934444 13.4981605,12.3243086 C13.4640864,12.2987531 13.4214938,12.281716 13.3845802,12.264679 C13.0551975,12.1170247 12.8393951,12.253321 12.8195185,12.6054198 C12.816679,12.6565309 12.816679,12.707642 12.8195185,12.7615926 C12.8564321,13.2073951 12.8393951,13.656037 12.8450741,14.0478889 M13.3363086,19.2754198 C12.5270494,19.2583827 11.0505062,19.2328272 9.57680247,19.164679 C9.21618519,19.1504815 8.86124691,19.0823333 8.51766667,18.9602346 C7.73680247,18.6904815 7.31939506,18.1083827 7.21433333,17.319 C7.1064321,16.5466543 7.06951852,15.7743086 7.07803704,14.9991235 C7.08371605,14.4397407 7.08087654,13.874679 7.07803704,13.3152963 C7.07519753,12.5855432 7.11211111,11.8529506 7.21717284,11.126037 C7.32507407,10.3678889 7.72544444,9.80850617 8.46087654,9.51035802 C8.78458025,9.38541975 9.12248148,9.32295062 9.46890123,9.30591358 C11.6297654,9.20369136 13.7906296,9.14974074 15.9514938,9.19801235 C17.0872963,9.21788889 18.2259383,9.27183951 19.3589012,9.30591358 C20.0772963,9.32579012 20.6565556,9.62109877 21.1165556,10.1577654 C21.1534691,10.2031975 21.1903827,10.2514691 21.2159383,10.3054198 C21.3806296,10.7512222 21.5424815,11.1885062 21.5765556,11.6740617 C21.6333457,12.6536914 21.6702593,13.6304815 21.6702593,14.6129506 C21.6702593,15.4165309 21.6049506,16.2172716 21.5538395,17.0151728 C21.5311235,17.4325802 21.3806296,17.8301111 21.1875432,18.1907284 C21.0342099,18.486037 20.7587778,18.7018395 20.4577901,18.8665309 C20.0829753,19.0738148 19.6854444,19.147642 19.2651975,19.164679 C17.5075432,19.2470247 15.7527284,19.3094938 13.3363086,19.2754198" id="Fill-1"></path>
                    <path d="M14.2344444,1.6582716 C7.30320988,1.6582716 1.66395062,7.29469136 1.66395062,14.2316049 C1.66395062,21.1628395 7.30320988,26.8049383 14.2344444,26.8049383 C21.1685185,26.8049383 26.8077778,21.1628395 26.8077778,14.2316049 C26.8077778,7.29469136 21.1685185,1.6582716 14.2344444,1.6582716 M14.2344444,28.4632099 C6.3917284,28.4632099 6.92779167e-14,22.0771605 6.92779167e-14,14.2316049 C6.92779167e-14,6.38320988 6.3917284,2.48689958e-14 14.2344444,2.48689958e-14 C22.08,2.48689958e-14 28.4688889,6.38320988 28.4688889,14.2316049 C28.4688889,22.0771605 22.08,28.4632099 14.2344444,28.4632099" id="Fill-9"></path>
                </g>
            </g>
        </g>
    </g>
</svg>